<?xml version="1.0" encoding="UTF-8"?>
<svg id="Camada_2" data-name="Camada 2" xmlns="http://www.w3.org/2000/svg" viewBox="0 0 39.685 39.685">
  <defs>
    <style>
      .cls-1 {
        fill: #fff;
      }
    </style>
  </defs>
  <g id="Camada_1-2" data-name="Camada 1">
    <path class="cls-1" d="M19.843,39.685C8.901,39.685,0,30.784,0,19.843S8.901,0,19.843,0s19.843,8.901,19.843,19.843-8.901,19.842-19.843,19.842ZM19.843,1.576C9.77,1.576,1.576,9.77,1.576,19.843s8.194,18.266,18.267,18.266,18.267-8.194,18.267-18.266S29.915,1.576,19.843,1.576Z"/>
    <circle class="cls-1" cx="19.843" cy="33.633" r="1.233"/>
    <circle class="cls-1" cx="32.157" cy="27.534" r="1.233"/>
    <circle class="cls-1" cx="10.78" cy="29.58" r="1.61"/>
    <path class="cls-1" d="M31.59,35.624c-9.043-6.749-19.569-11.071-30.506-12.534-.361-.048-.977-1.18-.977-1.18,11.491,1.336,22.573,5.781,32.05,12.854l-.567.86Z"/>
    <path class="cls-1" d="M20.962,28.767l-.423-.962c5.751-2.525,11.828-4.242,18.062-5.104l.144,1.04c-6.137.849-12.12,2.54-17.783,5.026Z"/>
    <path class="cls-1" d="M25.797,14.916c-.737,0-1.439.15-2.079.42.183-.732.289-1.507.289-2.312,0-2.938-1.298-5.551-3.306-6.654l-.51-.28-.51.28c-2.008,1.104-3.306,3.716-3.306,6.654,0,.717.08,1.414.226,2.075-.424-.108-.86-.183-1.317-.183h-3.804v3.803c0,2.961,2.408,5.369,5.368,5.369h2.444v3.882h2.12v-3.882h2.825c2.96,0,5.368-2.408,5.368-5.369v-3.803h-3.804ZM20.189,7.505c1.285,1.11,2.11,3.215,2.11,5.52s-.825,4.407-2.11,5.517c-1.285-1.11-2.11-3.213-2.11-5.517s.825-4.41,2.11-5.52ZM19.452,22.891h-2.315c-2.461,0-4.463-2.003-4.463-4.465v-2.313h2.315c2.461,0,4.463,2,4.463,4.462v2.316ZM28.404,18.427c0,2.461-2.002,4.465-4.463,4.465h-2.315v-2.316c0-2.461,2.002-4.462,4.463-4.462h2.315v2.313Z"/>
  </g>
</svg>