<?xml version="1.0" encoding="UTF-8"?>
<svg id="Camada_2" data-name="Camada 2" xmlns="http://www.w3.org/2000/svg" viewBox="0 0 39.685 39.685">
  <defs>
    <style>
      .cls-1 {
        fill: #fff;
      }
    </style>
  </defs>
  <g id="Camada_1-2" data-name="Camada 1">
    <path class="cls-1" d="M19.843,39.685C8.901,39.685,0,30.784,0,19.843S8.901,0,19.843,0s19.843,8.901,19.843,19.843-8.901,19.842-19.843,19.842ZM19.843,1.576C9.77,1.576,1.576,9.77,1.576,19.843s8.194,18.266,18.267,18.266,18.267-8.194,18.267-18.266S29.915,1.576,19.843,1.576Z"/>
    <path class="cls-1" d="M29.604,26.348h-14.55c-1.819,0-3.3-1.48-3.3-3.299,0-2.33,1.895-4.225,4.224-4.225h.634c.231-2.054,1.848-3.548,4.814-4.447.883-.269,2.483-.329,3.458.006,1.945.668,4.491,1.844,4.794,4.441h.422c1.937,0,3.514,1.577,3.514,3.515,0,2.211-1.799,4.01-4.011,4.01ZM15.979,19.874c-1.75,0-3.174,1.424-3.174,3.175,0,1.24,1.009,2.249,2.249,2.249h14.55c1.632,0,2.96-1.327,2.96-2.96,0-1.358-1.105-2.464-2.463-2.464h-1.442v-.525c0-1.77-1.269-2.994-4.116-3.973-.684-.236-2.025-.234-2.811.006-2.719.824-4.098,2.158-4.098,3.967v.525h-1.656Z"/>
    <path class="cls-1" d="M18.773,30.261c-.317,0-.574-.257-.574-.574v-1.705c0-.317.257-.574.574-.574s.574.257.574.574v1.705c0,.317-.257.574-.574.574Z"/>
    <path class="cls-1" d="M21.194,30.261c-.317,0-.574-.257-.574-.574v-1.705c0-.317.257-.574.574-.574s.574.257.574.574v1.705c0,.317-.257.574-.574.574Z"/>
    <path class="cls-1" d="M23.883,30.261c-.317,0-.574-.257-.574-.574v-1.705c0-.317.257-.574.574-.574s.574.257.574.574v1.705c0,.317-.257.574-.574.574Z"/>
    <path class="cls-1" d="M26.237,30.261c-.317,0-.574-.257-.574-.574v-1.705c0-.317.257-.574.574-.574s.574.257.574.574v1.705c0,.317-.257.574-.574.574Z"/>
    <path class="cls-1" d="M19.922,33.325c-.317,0-.574-.257-.574-.574v-1.705c0-.317.257-.574.574-.574s.574.257.574.574v1.705c0,.317-.257.574-.574.574Z"/>
    <path class="cls-1" d="M15.371,9.084c-.289,0-.523-.234-.523-.523v-1.554c0-.289.234-.523.523-.523s.523.234.523.523v1.554c0,.289-.234.523-.523.523Z"/>
    <path class="cls-1" d="M7.028,16.964c0,.289-.234.523-.523.523h-1.554c-.289,0-.523-.234-.523-.523s.234-.523.523-.523h1.554c.289,0,.523.234.523.523Z"/>
    <path class="cls-1" d="M9.388,22.638c.204.204.204.536,0,.74l-1.099,1.099c-.204.204-.536.204-.74,0s-.204-.536,0-.74l1.099-1.099c.204-.204.536-.204.74,0Z"/>
    <path class="cls-1" d="M21.131,11.483c-.204-.204-.204-.536,0-.74l1.099-1.099c.204-.204.536-.204.74,0s.204.536,0,.74l-1.099,1.099c-.204.204-.536.204-.74,0Z"/>
    <path class="cls-1" d="M9.456,11.483c-.204.204-.536.204-.74,0l-1.099-1.099c-.204-.204-.204-.536,0-.74s.536-.204.74,0l1.099,1.099c.204.204.204.536,0,.74Z"/>
    <path class="cls-1" d="M22.611,33.325c-.317,0-.574-.257-.574-.574v-1.705c0-.317.257-.574.574-.574s.574.257.574.574v1.705c0,.317-.257.574-.574.574Z"/>
    <path class="cls-1" d="M24.965,33.325c-.317,0-.574-.257-.574-.574v-1.705c0-.317.257-.574.574-.574s.574.257.574.574v1.705c0,.317-.257.574-.574.574Z"/>
    <path class="cls-1" d="M12.033,23.933c-.125,0-.25-.032-.366-.098-.543-.312-1.046-.691-1.496-1.128-1.465-1.425-2.273-3.335-2.273-5.379,0-4.135,3.364-7.499,7.499-7.499,2.104,0,4.124.892,5.543,2.448.274.3.252.765-.048,1.039-.3.273-.764.251-1.039-.048-1.141-1.251-2.765-1.968-4.457-1.968-3.324,0-6.028,2.704-6.028,6.028,0,1.643.648,3.179,1.827,4.324.362.351.767.657,1.205.909.352.202.473.651.271,1.003-.136.237-.384.369-.638.369Z"/>
  </g>
</svg>