<?xml version="1.0" encoding="UTF-8"?>
<svg id="Camada_2" data-name="Camada 2" xmlns="http://www.w3.org/2000/svg" viewBox="0 0 39.685 39.685">
  <defs>
    <style>
      .cls-1 {
        fill: #fff;
      }
    </style>
  </defs>
  <g id="Camada_1-2" data-name="Camada 1">
    <path class="cls-1" d="M19.843,39.685C8.901,39.685,0,30.784,0,19.843S8.901,0,19.843,0s19.843,8.901,19.843,19.843-8.901,19.842-19.843,19.842ZM19.843,1.576C9.77,1.576,1.576,9.77,1.576,19.843s8.194,18.266,18.267,18.266,18.267-8.194,18.267-18.266S29.915,1.576,19.843,1.576Z"/>
    <path class="cls-1" d="M19.843,39.685C8.901,39.685,0,30.784,0,19.843S8.901,0,19.843,0s19.843,8.901,19.843,19.843-8.901,19.842-19.843,19.842ZM19.843,1.576C9.77,1.576,1.576,9.77,1.576,19.843s8.194,18.266,18.267,18.266,18.267-8.194,18.267-18.266S29.915,1.576,19.843,1.576Z"/>
    <path class="cls-1" d="M27.056,37.944c-7.402-4.716-15.542-7.809-24.195-9.193l.166-1.038c8.795,1.407,17.069,4.552,24.593,9.344l-.564.886Z"/>
    <path class="cls-1" d="M25.031,27.048l-.379-.981c4.411-1.704,9.021-2.925,13.703-3.629l.156,1.038c-4.606.693-9.142,1.895-13.481,3.572Z"/>
    <path class="cls-1" d="M31.34,35.851c-8.971-6.186-19.418-10.162-30.213-11.5l.129-1.042c10.962,1.358,21.571,5.396,30.68,11.676l-.596.866Z"/>
    <path class="cls-1" d="M34.216,32.718C24.278,25.747,12.656,21.365.607,20.049l.114-1.044c12.225,1.336,24.016,5.781,34.099,12.854l-.603.86Z"/>
    <path class="cls-1" d="M21.015,24.943l-.423-.962c5.751-2.525,11.828-4.242,18.062-5.104l.144,1.04c-6.137.849-12.12,2.54-17.783,5.026Z"/>
    <path class="cls-1" d="M16.552,23.323l-.469-.94c3.431-1.71,7.026-3.152,10.686-4.29l.312,1.003c-3.606,1.12-7.149,2.542-10.529,4.227Z"/>
    <path class="cls-1" d="M10.827,14.302c-.365,0-.713.074-1.03.208.091-.363.143-.747.143-1.146,0-1.456-.643-2.75-1.638-3.297l-.253-.138-.253.138c-.995.547-1.638,1.841-1.638,3.297,0,.355.039.701.112,1.028-.21-.053-.426-.091-.653-.091h-1.885v1.884c0,1.467,1.193,2.66,2.66,2.66h1.211v1.923h1.05v-1.923h1.4c1.466,0,2.66-1.193,2.66-2.66v-1.884h-1.885ZM8.048,11.165c.512.442.841,1.281.841,2.199s-.329,1.756-.841,2.198c-.512-.442-.841-1.28-.841-2.198s.329-1.757.841-2.199ZM7.226,17.796h-.835c-.887,0-1.609-.722-1.609-1.61v-.834h.835c.887,0,1.609.721,1.609,1.609v.835ZM11.661,16.187c0,.887-.722,1.61-1.609,1.61h-.835v-.835c0-.887.722-1.609,1.609-1.609h.835v.834Z"/>
    <path class="cls-1" d="M22.448,14.302c-.365,0-.713.074-1.03.208.091-.363.143-.747.143-1.146,0-1.456-.643-2.75-1.638-3.297l-.253-.138-.253.138c-.995.547-1.638,1.841-1.638,3.297,0,.355.039.701.112,1.028-.21-.053-.426-.091-.653-.091h-1.885v1.884c0,1.467,1.193,2.66,2.66,2.66h1.211v1.923h1.05v-1.923h1.4c1.466,0,2.66-1.193,2.66-2.66v-1.884h-1.885ZM19.669,11.165c.512.442.841,1.281.841,2.199s-.329,1.756-.841,2.198c-.512-.442-.841-1.28-.841-2.198s.329-1.757.841-2.199ZM18.846,17.796h-.835c-.887,0-1.609-.722-1.609-1.61v-.834h.835c.887,0,1.609.721,1.609,1.609v.835ZM23.282,16.187c0,.887-.722,1.61-1.609,1.61h-.835v-.835c0-.887.722-1.609,1.609-1.609h.835v.834Z"/>
    <path class="cls-1" d="M33.906,14.302c-.365,0-.713.074-1.03.208.091-.363.143-.747.143-1.146,0-1.456-.643-2.75-1.638-3.297l-.253-.138-.253.138c-.995.547-1.638,1.841-1.638,3.297,0,.355.039.701.112,1.028-.21-.053-.426-.091-.653-.091h-1.885v1.884c0,1.467,1.193,2.66,2.66,2.66h1.211v1.923h1.05v-1.923h1.4c1.466,0,2.66-1.193,2.66-2.66v-1.884h-1.885ZM31.127,11.165c.512.442.841,1.281.841,2.199s-.329,1.756-.841,2.198c-.512-.442-.841-1.28-.841-2.198s.329-1.757.841-2.199ZM30.305,17.796h-.835c-.887,0-1.609-.722-1.609-1.61v-.834h.835c.887,0,1.609.721,1.609,1.609v.835ZM34.74,16.187c0,.887-.722,1.61-1.609,1.61h-.835v-.835c0-.887.722-1.609,1.609-1.609h.835v.834Z"/>
  </g>
</svg>