<?xml version="1.0" encoding="UTF-8"?>
<svg id="Camada_2" data-name="Camada 2" xmlns="http://www.w3.org/2000/svg" viewBox="0 0 36.85 36.85">
  <defs>
    <style>
      .cls-1 {
        fill: #fff;
      }
    </style>
  </defs>
  <g id="Camada_1-2" data-name="Camada 1">
    <path class="cls-1" d="M18.425,36.85C8.265,36.85,0,28.585,0,18.426S8.265,0,18.425,0s18.425,8.265,18.425,18.426-8.265,18.425-18.425,18.425ZM18.425,1.463C9.072,1.463,1.463,9.072,1.463,18.426s7.609,16.962,16.962,16.962,16.962-7.609,16.962-16.962S27.778,1.463,18.425,1.463Z"/>
    <path class="cls-1" d="M22.132,4.907c-2.454,0-4.451,1.998-4.451,4.452v1.044c-.737-.996-1.91-1.65-3.241-1.65h-2.827v2.828c0,2.229,1.814,4.043,4.043,4.043h1.999v7.384h1.171v-10.544h1.962c2.455,0,4.452-1.997,4.452-4.451v-3.106h-3.106ZM23.755,6.391v1.622c0,1.637-1.332,2.968-2.968,2.968h-1.622v-1.622c0-1.637,1.331-2.968,2.968-2.968h1.622ZM17.096,12.797v1.44h-1.441c-1.465,0-2.656-1.192-2.656-2.656v-1.441h1.441c1.465,0,2.656,1.192,2.656,2.657Z"/>
    <rect class="cls-1" x="1.171" y="22.423" width="34.217" height="1.17"/>
    <path class="cls-1" d="M12.705,33.697c-.092,0-.186-.022-.273-.069-.286-.151-.395-.505-.244-.791l5.484-10.388c.151-.285.505-.397.791-.244.286.151.395.505.244.791l-5.484,10.388c-.105.198-.308.312-.518.312Z"/>
    <path class="cls-1" d="M26.891,32.367c-.148,0-.295-.058-.405-.173l-8.587-8.983c-.214-.225-.206-.58.018-.793.224-.215.58-.206.793.017l8.587,8.983c.214.225.206.58-.018.793-.109.104-.248.155-.388.155Z"/>
    <path class="cls-1" d="M21.78,26.7c-.243-.066-.424-.287-.43-.552-.007-.323.249-.591.572-.598l6.607-.145c.324-.004.591.248.598.572.007.323-.249.591-.572.598l-6.607.145c-.058,0-.114-.006-.168-.02Z"/>
    <path class="cls-1" d="M18.976,32.124c-.049,0-.099-.007-.149-.02-.312-.082-.5-.402-.418-.714l1.56-5.949c.082-.312.402-.501.715-.417.312.082.5.402.418.714l-1.56,5.949c-.069.263-.306.437-.566.437Z"/>
    <path class="cls-1" d="M9.153,28.59c-.231,0-.451-.139-.543-.367-.121-.3.024-.641.324-.762l7.773-3.135c.3-.119.642.025.762.324.121.3-.024.641-.324.762l-7.773,3.135c-.072.029-.146.043-.219.043Z"/>
    <circle class="cls-1" cx="6.612" cy="25.025" r=".827"/>
    <circle class="cls-1" cx="16.463" cy="32.167" r=".827"/>
    <circle class="cls-1" cx="21.982" cy="30.22" r=".827"/>
    <circle class="cls-1" cx="31.052" cy="25.431" r=".827"/>
    <circle class="cls-1" cx="26.821" cy="29.433" r=".827"/>
    <path class="cls-1" d="M22.52,34.388c-.169.05-.359.024-.512-.087-.262-.19-.319-.556-.129-.817l2.693-3.703c.19-.262.556-.32.818-.13.261.191.319.556.129.817l-2.693,3.703c-.079.108-.187.181-.306.216Z"/>
    <path class="cls-1" d="M28.537,28.365c-.219.088-.479.039-.649-.145l-1.338-1.444c-.22-.237-.206-.607.032-.827.233-.222.607-.206.827.031l1.338,1.444c.22.237.206.607-.032.827-.053.05-.114.088-.178.114Z"/>
    <path class="cls-1" d="M13.726,31.599h-3.213c-.323,0-.585-.262-.585-.585s.262-.585.585-.585h3.213c.323,0,.585.262.585.585s-.262.585-.585.585Z"/>
    <path class="cls-1" d="M13.865,26.797l-1.561,2.808c-.157.283-.513.384-.796.228s-.384-.513-.227-.796l1.561-2.808c.157-.283.513-.384.796-.228s.384.513.227.796Z"/>
  </g>
</svg>