<?xml version="1.0" encoding="UTF-8"?>
<svg id="Camada_2" data-name="Camada 2" xmlns="http://www.w3.org/2000/svg" viewBox="0 0 179.022 50.148">
  <defs>
    <style>
      .cls-1 {
        fill: #1b523b;
      }

      .cls-2 {
        fill: #1d1d1b;
      }

      .cls-3 {
        fill: #611a1a;
      }
    </style>
  </defs>
  <g id="Camada_1-2" data-name="Camada 1">
    <g>
      <path class="cls-1" d="M1.38,50.148S-6.399,24.111,14.983,13.853c10.277-4.93,30.487-1.815,38.643-13.853,0,0,2.404,18.961-10.842,29.654-13.247,10.693-31.53,7.967-37.285,16.019,0,0-.576-10.516,6.93-15.418,5.558-3.63,8.396-4.383,12.475-5.65-5.175.818-18.032,4.013-21.266,11.108C.046,43.592,1.38,50.148,1.38,50.148Z"/>
      <g>
        <path class="cls-2" d="M60.541,18.595l.296-.052c.09-.019.252,0,.487.058l.41-.231.295.195.273-.084.037.119.177-.185.119-.037.114.199.211-.117.103.164.966-.246.029.095-.115.218.207.079-.022-.241.392-.121.602-.368.744.005-.152.099,1.116-.097-.031.322,1.66.021.103.164c.258-.062.558-.077.898-.043l.199-.114.185.177c.372-.089.744-.121,1.116-.097l.237-.203.477-.017.32.279.226-.07.167.287.331.145.15.318-.166.051-.101.643-.511.835-.242.609-.166.051c-.031.097-.12.328-.267.695l-.231.137c-.088.053-.158.123-.209.208l-.2.322-.004.197-.166.051c-.193.528-.398.848-.616.959l-.003.157-.181.004-.06.396,1.628.083,1.235-.134,1.554.015.379.13.288-.037c.084-.008.306.049.665.172l.022.071.537-.244.491.031.199-.114c.089.12.345.345.768.674l.407-.074.132.09.511-.158.347.323-.16.284.296.156.214-.066.27.073c.002.373-.036.641-.116.804-.08.164-.177.328-.29.493l-.003.157c-.333.355-.522.561-.565.617l-.135.237c-.057.096-.123.333-.197.712l-.316.032.022.241-.211.117-.029.243-.355.201-.638.718-.273.084-.148.111-.02.188-.143.044-.02.188-.299.34-.127.222-.304.198-.199.283c-.068.09-.184.179-.348.264l-.191.437-.506.26-.993.919-1.935,1.366-.394.369-.276.033-.326.335-.55.326c-.066.038-.191.168-.375.389l-.44.136-.553.783-.378.169c-.146.201-.243.409-.289.623l-.356.24-.276.033-.507.508-.633.143-.346-.193-.006-.61.319-.528-.292-.522.149-.528-.034-.237c-.001-.06.028-.304.087-.73l-.288-.341.111-.23-.213-.351.14-.473.116-.088-.099-.321c.156-.17.267-.33.333-.481l-.164-.236.228-.148-.171-.299.163-.233-.107-.345.031-.491-.128-.625-.207-1.851-.174-.142.016-.37-.298-.207.333-.481-.374.011-.319-.696.111-.23-.332-.314c.061-.14.075-.405.041-.794l.312-.383-.011-.374-.099-.152.209-.546-.565-.438.209-.546-.418-.301-.066-.214.119-.415-.114-.369.163-.233-.131-.676-.207-.079-.173-.559-.019-.229-.347-.323-1.028.213-1.445.551-.243-.407-.292.234-.112.269-.313-.086-.377-.418-.007-.193.241-.022.316-1.127.472-.875ZM67.537,27.582l-.167.051.07.226-.178.055-.196.295-.359.059.045.65.978,2.238-.226.786.027.552.201.185-.091.927.151.488c-.045.248-.13.435-.256.561l.273.293-.214.066.286.758.281.109.26-.171.113-.139.314-.123c.09-.045.209-.151.357-.319l.502-.103.666-.584.248.002.408-.491.795-.545c.228-.218.341-.357.34-.418l.655-.072.082-.325.446-.242c.05-.033.161-.154.331-.363l.214-.066.242-.27-.051-.166.381-.118.515-.693,1.403-1.15.33-.662.744-.712.149-.528-.532-.5-.531-.031-.751-.237-.454-.289c-.39-.027-.605-.061-.643-.101l-.314.292-.665-.172-.134.028-.134.028-.17.04c-.058.009-.129.005-.212-.013l-.337-.078-.517.225-.973.053-.179-.075-.178.055-.236-.174-.399.267-.018.11-.333.103-.255-.025-.1.265-.277-.097-.366.165-.277-.097-.011.134-.548.039-.37.193-.15-.149ZM66.287,20.584l-.238.451-.014.291-.109.32c-.037.133-.019.318.055.556l.081.262-.184.669.246.458-.233.215c.097.456.151.883.161,1.279.218.002.37.033.458.093l.544-.728c.174-.14.383-.335.627-.584l.351-.382.704-.504.073-.27.378-.169.582-.688.396-.279.095-.029.253-.404-.085-.443-.199.114-.477-.152-.263-.049-.236-.174-.812-.14-.378.169-.724-.024-1.05.142Z"/>
        <path class="cls-2" d="M86.199,22.695l-.05.004-.053.652.105.067-.141.472-.056-.083.013.186c.026.364-.103.723-.385,1.075l.099-.007.016.223-.05.004.153,1.449-.087.181.066.232-.122.919.062-.004c.012.166-.013.404-.074.716l-.088.343-.032,1.661c-.021.168-.031.264-.029.289.011.149.082.219.214.209.157-.011.326-.086.508-.223l.768-.603c.204-.289.356-.437.455-.444l.075-.005c.136-.076.26-.197.373-.363.113-.166.202-.264.266-.293.108-.232.212-.352.311-.359.008,0,.042.005.101.018.059.013.214.031.465.054l.124.341c.014.19-.038.412-.152.666-.115.254-.206.464-.273.631-.067.167-.234.31-.5.428l.006.087-.177-.037.012.174-.112.008c-.009.225-.116.362-.32.409l.005.074-.335.024.004.05-.124.009-.319.247-.099.007-.157.248-.504.111c-.043.103-.118.158-.225.166l-.6.504.007.099-.314-.028.096.118-.403.128.004.062-.174.012.012.174-.177.137-.05.004.004.05c-.086.314-.228.478-.427.492l-.177-.037c-.121-.299-.313-.593-.574-.882.047-.27.067-.466.058-.59l-.136-.502-.019-.273c-.018-.256-.012-.523.018-.8l.052-.328-.004-.062-.025.002c-.017.001-.025-.006-.027-.023-.001-.016.029-.152.09-.406.061-.254.077-.579.049-.977-.007-.099-.048-.154-.124-.166l.138-.347-.107-1.502.168-.449c.057-.137.104-.402.143-.796.103-.074.16-.14.173-.199l-.11-.142.082-.255c-.151-.247-.313-.365-.486-.352l-.583.041c-.062.071-.089.148-.083.23l-.087.006c-.026.226-.123.371-.294.432-.026.218-.137.355-.333.41l-.198.376-.05.004c-.045.186-.142.285-.291.295-.166.012-.309-.099-.429-.331-.121-.233-.182-.361-.183-.386-.002-.033.012-.071.042-.115.057-.37.292-.69.705-.961l-.007-.099c.169-.195.345-.345.53-.449l-.112.008c.35-.1.546-.299.588-.597.041-.298.248-.46.62-.487l.152.039.3-.171-.186.013.272-.206.078.044.204-.289.066.045c.082-.247.301-.383.657-.408.083-.006.122-.042.117-.108l-.009-.124.099-.007-.053-.046.389-.315c.116-.241.319-.372.608-.392.182-.013.345.025.488.115s.219.184.226.283c.008.108-.039.265-.141.472ZM87.484,15.306l-.074.005-.39,1.013-.053-.046c.006.091-.03.173-.107.245l.004.05c-.162.303-.374.53-.638.681l-.103-.043.007.099c-.326-.018-.581-.069-.766-.152-.185-.082-.328-.23-.431-.443-.102-.213-.204-.437-.303-.671.112-.183.208-.293.288-.332l.076-.342.394-.253.189-.5.394-.253.005.075.23.083c.055-.037.093-.067.112-.089.019-.022.046-.049.082-.081.035-.032.13-.072.285-.12.154-.048.271-.1.351-.156l.131-.084.099-.007.206.272.028.397.075.356-.092.293Z"/>
        <path class="cls-2" d="M96.927,20.051h.635l.411.187c.099.44.261.659.485.659.083,0,.124-.083.124-.249.257-.191.494-.286.709-.286.133,0,.244.046.336.137.091.091.141.183.149.274l.099,1.419-.075.286c-.058.191-.099.394-.124.61-.025.216-.064.386-.118.51-.054.124-.093.203-.118.236l-1.008,1.07.124.734-.261.436-.124.398-.784.896-.386.971c-.232.257-.564.46-.996.61l-.174.709-.722.46-.635.772-1.145.859-.336.087-1.294,1.045-.361-.336c-.282-.216-.479-.4-.591-.554-.112-.154-.168-.292-.168-.417,0-.066.025-.124.075-.174l.124-1.07-.535-.871c-.05-.075-.075-.141-.075-.199,0-.099.05-.212.149-.336v-.05l.211-.199-.236-.622.075-1.294v-.336l.187-.099c-.091-.166-.137-.361-.137-.585,0-.124.054-.253.162-.386h.224l-.199-.174.149-.274.261-.672.373-.46.112-.348.373-.51c.033-.116.066-.22.099-.311v.025c0-.133.031-.241.093-.324.062-.083.16-.236.292-.46l.61-.311.05-.174c.415-.332.825-.535,1.232-.61l.834-.162.56-.324.411.025.871-.236ZM96.156,22.278l-.05.099c-.149,0-.257.002-.324.006-.066.004-.162.06-.286.168l-.361-.149-1.369.759c-.34.191-.631.504-.871.94-.241.435-.361.794-.361,1.076,0,.174.037.328.112.46h.05c0,.191.05.539.149,1.045l-.311.485.236.348-.124.436c0,.058.033.16.1.305.066.145.097.253.093.324-.004.071.064.218.205.442l-.025.261c0,.456.112.684.336.684.182,0,.427-.128.734-.386.075-.216.22-.332.436-.348l.124-.386c.141-.017.211-.083.211-.199v-.087c.042-.025.087-.05.137-.075.05-.025.079-.041.087-.05.099-.324.294-.688.585-1.095l.087.05-.037-.1.386-.436.485-1.605.075-.149.162-.05.012-.286v-.224c.008-.05.07-.203.187-.46l-.771-.61.597-.236-.087-.684.112-.249-.162.075-.56-.099Z"/>
        <path class="cls-3" d="M113.12,11.911l.585.075.286.46-.05.56c.025.108.048.201.068.28.021.079.056.334.106.765l.099.299v.46l.286.286v.174l.411,3.235h.124l.174.224h-.398c.157.456.29.925.398,1.406l.411.149.386-.324.411.174h.174l.05.05.075-.05c.033.033.203.066.51.1l.635-.46.996.062.05-.187.635.187,1.107-.286.224-.224c.083-.091.191-.157.324-.199l.498-.162.224.361h.411l.174.51c-.158.324-.311.56-.46.709l-.124-.075-.996,1.045-.51.348h-1.219l-.684.187-.597-.137-1.195.51-.075-.05-.734.311.174,2.7h.05v.124l-.174.187.174.149.05.585.124.124-.124.236.236.324.124.995.174.236.174-.062.062.162-.025.174h-.162l.05,1.456c-.149.249-.303.46-.46.635l-.448.05-.137.361-.324-.05.05.324-.199.249c-.058.075-.282.232-.672.473l-.436-.361c-.05-.033-.108-.124-.174-.274l-.149-.361v-.697l-.236-1.095-.1-.174.1-.709-.1-.61.236-.485-.286-1.02c.075-.157.124-.369.149-.635l-.1-.187.1-.535c0-.149-.05-.456-.149-.921l.224-.498-.075-.821-.373-.224-.261.1v-.1l-.56.05.05.348-.274-.075-.311.075-.075.05c-.382.191-.755.286-1.12.286l-.361-.05-.734.224-.772.137-.05.324-.535-.224v.224h-.1l-.361.361h-.51l.187.51-.485-.1-.747.448-.174.187-.411-.124-.46.348h-.448v.336l-.46.075-.187.411-.224.224-.311.796.087.075c-.025.075-.162.228-.411.46l-.05.684-.361.274.05.137h-.174v.274l-.411.311v.1c-.058.058-.153.212-.286.46h-.099l-.299.871-.112-.162v.1l-.299.236-.075.236c-.017.083-.104.199-.261.348l-.46-.174c-.05-.141-.091-.22-.124-.236l.05-.174v-.1l.075-.236c-.091-.157-.149-.473-.174-.946l.174.087-.124-.137v-.174l.05-.05-.099-.311.099-.224-.124-.286.075-.1c-.017-.182-.033-.436-.05-.759l.236-.187.684.535h.411l1.444-1.804-.224-.149.05-.261-.46.187-.075.124-.099-.05-.286.149c-.083.05-.261.091-.535.124l-.411-.535c.199-.506.377-.792.535-.859,0-.091.137-.278.411-.56l.286-.087-.05-.05.46-.635h.05l1.095-.224.124.224.224-.05.05.05h.137l.1-.224.361.05v-.1l.274-.236-.174-.299.224-.336.585-.224-.05-.137.075-.187c.016-.058.145-.191.386-.398.157-.63.328-.996.51-1.095h-.099l.585-.734.05.05.871-1.381h-.05l.324-.485h.075l.697-1.269h.1l.585-.971.174-.05.286-.535c.033-.033.108-.22.224-.56l.411-.311v-.05l.224-.585.137-.05.05-.46h.174l.05-.174h.05l.137-.286.983-.585.51-.348ZM111.166,15.632l-.411.1v.174l-.411.411h-.124l-.56.809h-.05l-.411.796v.124l-.149.224c-.05.091-.12.162-.212.212l-.348.199-.162.411c-.05.116-.091.407-.124.871l-.224-.05-.05.324-.46.361.05.05v.286l-.411.174-.323.908c-.058.174-.12.311-.187.411l-.299.411.05.075v.05l.124.062h.734l.311.174.971-.585.809-.05.05.174.075-.311h.46l.821-.224.224.075.51-.174v-.05l.772-.261v-.05l.958-.224v-.286l-.324-.299v-.971l.274-.635-.274-.187-.361.187-.46-.647.647-.05v-.174l-.771-.174.075-.187-.224-.274.149-.236-.411-.635.075-.124.112-.05-.187-.187-.149-.859-.174-.1Z"/>
        <path class="cls-3" d="M134.845,12.634l.351.099.025.179.166.073-.119.499-.026.185-.197.149-.092.389c-.058.235-.167.421-.329.557l.146.121-.301.084-.039.284-.309.233-.063.456-.079-.061-.191.288-.132.497c-.017.065-.095.171-.233.319l.035.294-.154.293c-.068.125-.134.212-.2.261l-.295.223-.063.456.116.066-.223.698.053.158-.382.487-.063.456-.253.191-.08.579-.34.367-.033.234.097.114-.11.337.11.204c-.159.238-.359.382-.6.432l-.097.338.157.135-.388.172.013.266-.094.314c.44.028.699.03.778.008l.208.129-1.212,1.126-.537,1.333-.255.115-.007.414-.116.11.024.192-.063.092-.074.53.003.34-.099-.014-.115.286-.205.122-.099-.014-.089.641.217.156-.34.367.099.014-.08.215.152.26-.031.222.149.197-.13.396.091.251-.125.9-.179.025.116.431-.05.357.104.881.519,1.693-.049-.007.345.412c.185.419.34.751.465.994.235.175.367.315.394.419l.111.015-.017.123.226.182.148.021.21.205c.348-.035.608-.188.78-.457.176,0,.401-.087.676-.258l.179.427-.193.036-.031.222-.239.092.01.29-.031.222.179-.025-.057.407-.369.125.06.109-.179.025-.105.124.073.111-.185-.026.032.13c-.212.021-.471.106-.777.256-.077-.053-.243-.272-.499-.66l-.529.102-.216-.344-.068-.236-.065-.072c-.03-.029-.054-.077-.075-.142-.02-.066-.045-.142-.075-.23l.031-.222-.145-.309.017-.123-.201-.179-1.04-1.74-.574-1.474.098-.162-.232-.497.239-.092-.066-.248.013-.639-.068-.236-.065-.524-.176-.364c-.026-.054-.037-.185-.033-.394l.008-.69.07-.505-.062-.009.209-.511-.036-.281-.326-.096.131-.221.11.116-.072-.751-.259.24.323-.696-.173-.024-.007.049-.178-.075-.632.478-.042-.056-.369.125-.033.234-.314.182-.017.123-.173-.024-.232.131c-.073.04-.222.061-.449.063l.024.28-.309.145c-.128.317-.262.529-.402.635l-.024.173-.247.154-.038.271-.215-.08-.427.632-.506.118-.129.208-.241.017-.012.086-.366.1-.049-.007c-.043-.291-.112-.489-.207-.594l-.014.099c-.147-.272-.261-.443-.343-.513l.013-.639.113-.273.024-.173c-.038-.148-.083-.25-.133-.307l.123-.159.024-.173.124-.347-.191-.253.244-.129c-.082-.254-.105-.513-.068-.776l.024-.173.089-.277-.057-.309.275-.351-.017-.781.123.017.166-.379.026-.185.123.017.158-1.134.19-.099.126-.548.033-.234.407.057.186-.615.393.155.384-.688.031-.222.06.109c.132-.166.308-.468.528-.907l.177-.101.026-.185.048.195.099-.351.229-.019.175-.265.017-.123.179-.025c.065-.108.323-.303.772-.584l.036.105.216-.196.212.105.109-.06.015-.111.129.068.243-.481.532.237-.042-.056.357.05-.079-.061.193-.036.592.17.669.52-.247-.034.462.202-.014.099.271.402c.05.367.102.563.157.587l.181-.038.171-.328.248-.066.08-.579.075-.178.179-.025.007-.414.123-.159.304-.108-.066-.248.06-.067-.221-.131.319-2.293.211-.159c.056-.16.103-.262.143-.307l-.037-.093.094-.678-.308.133-.215-.08c-.038.028-.145.051-.324.068l-.08.215-.381.123-.148-.021-.265-.263-.097-.478-.113-.091.144-.131-.074-.375.147-.155.241-.017.075-.178.229-.019.291-.374.123.017.066-.116,1.006-.551.063-.092.407.057.019-.136.104.153.173.024.075-.178c.16-.003.303-.042.431-.116l1.148.059ZM127.353,21.166l-.143.307-.858.295-.462.702-.188.087-.049-.007-.135.157-.067-.06-.136.257.08.149c-.123.402-.231.634-.323.696l-.031.222c-.155.087-.293.269-.415.545l-.123-.017-.038.271-.246.506.084.301c-.228.437-.407.727-.535.868l.076.174-.063.456.118.142-.223.245v.364s.196.304.196.304l.014-.099.159.123.378-.098.092.063.733-.665.179-.025.007-.049.407-.308.431-.116.317-.295.195-.048.65-.425.857-.471.227-.458c.023-.047.148-.159.373-.338.11-.311.239-.54.385-.688l-.301-.456.077-.919-.008-.303.014-.099c-.073-.136-.114-.263-.123-.381l-.185-.026-.087.264-.289-.09.038-.271-.118.034-.025-.179-.362.075-.34-.173-.01-.29-.203-.254Z"/>
        <path class="cls-3" d="M142.712,19.524l.318.509c-.248.334-.446.641-.594.922l-.494.207-.138.27.088.088-.031.222.035.106-.118.122-.038.271-.229.382-.19.099c-.181.335-.318.626-.411.872l-.302.184-.143.395.079.061-.358.314-.038.271-.118.122.053.699-.229.558.004.692.052.523-.064.456.017.593-.131.22-.095.678c.252-.065.436-.152.552-.262l.227.082.024-.173.657-.473.295-.134.019-.136.511-.33.18-.389c.211-.071.378-.161.503-.269l.035.106.031-.222.29-.186-.017.123.123-.159.173.024.019-.136.063-.092.234.033.073-.166-.01-.29.949-.583c.099-.053.167-.115.202-.185l.177-.277c.169-.068.329-.105.48-.109l.075-.178.137-.081.16.022.031-.222.05.183.031-.222c.093-.129.179-.205.258-.228l.07-.141.667-.547.234.033.255-.203.301-.448c.455-.38.721-.632.797-.755l.366-.012.402-.534-.142.294.506-.293.245.223.39-.184.456.064.196.216.024.456-.237.168c-.074.048-.187.2-.34.455l.043.232-.18.389-.024.173-.211.159-.045.32-.232.043-.09.641-.087.264.01.29-.265.189.092.327-.167.203.058.574-.179.289-.304,2.169.072.475.198.204.463.015.191.253-.089.276-.313.082-.151.268-.229.018-.214.272-.185-.026-.138.27-.554.098-.219.309-.707.027-.311.245-.597.042-.257-.225-.12-.758.265-.277-.092-.239.204-.198.241-.016.513-1.687.031-.222-.105-.329.248-.066-.055-.234.129-.296-.22-.131-.099-.19.248-.154.038-.271.179-.289c-.198-.204-.337-.315-.418-.335l.009-.602-.234-.033-.159-.123-.291.374-1.449,1.192-.258.14-.073.166-1.133.997-.144.219-1.204,1.063-1.449,1.192-.411.156c-.053.018-.15.113-.291.286-.372.082-.575.129-.61.141l-.017.123-.15-.096-.05.357-.376.173-.449-.113-.503.269-.05-.183-.261-.2-.008-.303c-.111-.108-.19-.257-.239-.448l-.27-.138-.059-.297.104-1.996.275-.703.099.014.074-.53.314-.182-.016-.241.23-.383.222.031.07-.141v-.352s.193-.036.193-.036l.105-.387.056-.042-.122-.206.196-.324.057-.407.195-.852.099.014.057-.407.272-.238-.152-.26.226-.27-.041-.157.298-.423-.3-.457-.229.018-.08.215-.341.015-.165.278-.407-.057-.141-.246-1.432.264-.274-.642.518-.38c.252-.065.425-.196.52-.392l.417-.017.016-.111.357.05.463.015.37-.488.437.199.524-.065c.034-.062.1-.12.2-.173l.407.057-.039-.081.105-.035.284.04.093-.125c.19-.04.393-.146.61-.317l.222.031.218-.208.179-.025.166.073.251-.09.106.141.13-.208.123.017Z"/>
        <path class="cls-3" d="M163.003,11.844l.361.208v.229s-.041.182-.041.182l.049.292-.136.097-.025.339-.287.255-.071.316h-.229s-.058.484-.058.484l-.412.303-.976,1.452-.757,1.501-.282.46-.021-.132-.299.711-.038-.059-.13,1.093-.304.276-.054.243.059.307-.132.021-.075-.119-.022.327-.089.171-.176.216c-.047.058-.169.319-.367.785l-.059.038.273.431-.108.256c-.185.027-.372.125-.563.295l.219.049-.016.073.255.057.417.246c.372-.104.671-.13.898-.08l.487.16.363.03.021.132.417.017.021.132.487-.069.313.198-.059.038.182.041.622-.218.202.122.03-.134.704.158,1.006.519.151.353.068-.074c.315.147.629.341.941.581l.021.132.29.358-.57.893-.13.124-.17-.038-.087.159-.117.522-.058-.14-.1.22-.378.094-.221.473-.405.215.048.126-.121-.027.038.059-.209.081-.097.208c-.245.03-.556.301-.934.811l-.105-.1.021.132-.242-.003-.1.22-.111-.076-.097.208-.39.206-.027.121-.17.191-.159-.087.051.113-.371.006-.033.146-.528.252.021.132-.154.119-.146-.033-.051-.113-.135.148-.134-.03.038.174-.186.035-.192.288-.114.051-.024.109-.231-.052-.17.191-.086-.07c-.177.258-.353.418-.528.481l-.022.097-.121-.027.008.193-.121-.142-.108.142-.182-.041-.184.367-.159-.087-.161.206c-.336.095-.535.169-.598.223l.025.171-.109-.024-.027.121-.17-.038c-.191.093-.325.14-.401.14l-.038-.059-.27.182c-.241.09-.437.187-.587.289l-.29-.129-.901.436-.027.121-.182-.041c-.39.261-.683.412-.879.453l-.076.111-.132.021-.172.255-.1-.124-.316.159-.032-.084-.223.371-.145-.377-.433-.173-.235.024-.144-.211.32-.349.294-.062.239.13.465-.368.079-.352.22-.129.222-.422.342-.217c.139-.088.237-.168.296-.24l.248-.365.263-.094-.155-.162.282-.179.028-.351c.078-.348.222-.647.431-.898l-.021-.132.491-.311.09-.401-.048-.355.198-.313.45-1.213c-.086-.223-.126-.385-.121-.486l.281-.23-.005-.32.133-.251-.021-.247.128-.8.367-1.41c.162-.117.276-.265.342-.446l.17.038.06-.267.151-.106-.111-.076.149-.094-.027-.108.079-.352-.051-.113c.158-.211.343-.412.556-.602l-.13-.272.111-.154.18-.062.062.065.149-.209-.229-.23.171-.536.219-.181-.043-.379c.217-.402.374-.647.471-.736l.014-.405.407-.623-.009-.359.063-.279.112-.102-.13-.271.157-.475c.135-.148.284-.378.448-.69l-.048-.24-.268-.226.028-.351-.509-.063-.284.242c-.17.191-.338.341-.502.449-.164.108-.322.234-.474.379l-.097-.022-.441.092-.595-.248-.243.06-.208-.212c-.062-.065-.173-.289-.334-.674l.293.117.16-.487,1.736-.861c.221-.002.364-.012.428-.032l.852-.332h.229c.206-.123.329-.236.369-.338l.401-.14.568-.485.989-.658.387.036.125-.214.219.049c.29-.08.488-.112.595-.096l.101-.054ZM161.304,25.695l-.108.027-.293-.117-.181.011.057.089-.181.011-.07.086-.04-.162-.082.084-.245-.157-.482.045c-.058-.081-.165-.156-.32-.225-.329.105-.541.155-.633.152-.059.148-.173.242-.343.28l-.032-.084-.174.152-.024-.12-.059.038-.17-.267-.121-.027-.034-.135-.219-.049c-.14.283-.32.536-.54.759l.162.585-.532,1.067.103.393c.036.144.018.374-.052.69l-.157.475-.019.314-.353.151-.351,1.566-.097-.022-.058.829-.087.159-.003.242.307-.059.512-.408.601-.235,1.061-.808.147-.146.235-.024c.224-.205.363-.348.415-.43l.194-.071.685-.497.103-.232.474.106v-.344s.311-.134.311-.134l.218-.346.486-.121.723-.782.136-.097.024-.109.287-.484-.058-.765c-.482-.278-.759-.523-.83-.734l-.293-.117Z"/>
        <path class="cls-3" d="M176.568,26.387l.598.212.324.313c-.053.448.026.709.237.784.078.028.145-.036.201-.193.306-.094.561-.105.764-.032.125.044.215.125.271.241.055.117.072.219.049.308l-.381,1.37-.166.245c-.119.161-.226.338-.321.533-.096.195-.19.342-.282.441-.093.099-.156.16-.191.183l-1.308.671-.128.733-.392.323-.251.334-1.039.582-.688.786c-.305.165-.686.245-1.142.241l-.402.61-.834.192-.856.515-1.366.426-.346-.03-1.569.552-.228-.437c-.194-.298-.317-.538-.372-.72-.054-.182-.06-.332-.019-.449.022-.062.065-.109.129-.139l.475-.967-.213-1c-.022-.087-.023-.158-.004-.213.033-.094.118-.183.253-.267l.017-.047.266-.117-.015-.665.504-1.195.112-.317.209-.031c-.031-.187-.008-.386.067-.597.042-.117.135-.22.282-.309l.211.075-.129-.231.232-.208.471-.546.506-.309.222-.291.523-.356c.07-.098.136-.185.198-.26l-.008.023c.044-.125.11-.216.196-.274.086-.057.23-.169.43-.336l.679-.089.105-.147c.502-.174.957-.228,1.365-.162l.84.127.636-.117.379.161.9.069ZM175.095,28.227l-.08.077c-.141-.05-.243-.084-.307-.102-.064-.018-.173.003-.326.063l-.29-.261-1.544.257c-.385.066-.763.264-1.135.594-.373.33-.606.628-.7.894-.058.164-.075.321-.049.471l.047.017c-.064.18-.134.525-.209,1.035l-.456.353.106.407-.263.369c-.019.055-.022.162-.008.321.014.159.007.271-.02.336-.028.065-.012.227.046.485l-.111.238c-.153.43-.124.682.088.757.172.061.446.022.821-.118.143-.178.318-.239.527-.183l.246-.322c.138.032.227-.007.266-.117l.029-.082c.047-.01.099-.018.154-.025.055-.007.088-.013.099-.018.202-.272.508-.55.918-.836l.065.076-.002-.106.509-.281.995-1.35.12-.116.169.007.108-.266.075-.211c.024-.044.134-.168.33-.371l-.523-.833.642-.023.147-.674.189-.197-.177.016-.494-.281Z"/>
      </g>
      <g>
        <path class="cls-3" d="M69.683,43.935h-2.065v1.324h1.726c.16,0,.279.036.358.108.079.072.118.168.118.288s-.04.215-.12.286c-.08.071-.199.106-.356.106h-1.726v1.705c0,.217-.049.377-.146.482-.098.105-.223.157-.376.157-.155,0-.282-.053-.379-.159s-.146-.266-.146-.48v-3.981c0-.151.022-.274.067-.369.045-.095.115-.165.21-.208.095-.043.217-.065.365-.065h2.471c.167,0,.291.037.372.111s.122.171.122.291c0,.122-.041.221-.122.295s-.205.111-.372.111Z"/>
        <path class="cls-3" d="M74.945,43.935h-2.361v1.271h2.174c.16,0,.279.036.358.108.079.072.118.166.118.284s-.039.214-.116.288c-.078.074-.198.111-.36.111h-2.174v1.472h2.443c.165,0,.289.038.372.115.084.077.125.178.125.305,0,.122-.042.222-.125.298-.084.077-.208.115-.372.115h-2.848c-.228,0-.392-.051-.492-.152-.1-.101-.15-.265-.15-.491v-3.89c0-.151.022-.274.067-.369.045-.095.115-.165.21-.208.095-.043.217-.065.365-.065h2.767c.167,0,.291.037.372.111.081.074.122.171.122.291,0,.122-.041.221-.122.295-.081.074-.205.111-.372.111Z"/>
        <path class="cls-3" d="M78.344,46.088h-.367v1.662c0,.219-.048.38-.145.484-.096.103-.222.155-.378.155-.167,0-.296-.054-.388-.162s-.138-.267-.138-.477v-3.981c0-.226.051-.389.152-.491s.265-.152.491-.152h1.705c.235,0,.436.01.604.03.167.02.318.061.452.122.162.068.306.166.431.293.125.127.219.275.284.443.065.168.097.347.097.535,0,.386-.109.694-.326.925-.218.231-.548.394-.99.491.186.099.364.245.533.438s.321.398.454.616.237.414.311.589c.074.175.111.296.111.362,0,.068-.022.136-.065.203-.044.067-.103.12-.178.159-.075.039-.162.058-.261.058-.118,0-.217-.028-.296-.083-.08-.055-.149-.125-.206-.21-.058-.085-.136-.209-.235-.374l-.42-.699c-.151-.256-.285-.452-.404-.586-.119-.134-.24-.226-.362-.275-.122-.049-.277-.074-.462-.074ZM78.944,43.914h-.967v1.422h.939c.252,0,.464-.022.635-.065.172-.044.303-.118.394-.222.091-.105.136-.249.136-.432,0-.143-.037-.27-.109-.379-.073-.109-.174-.191-.304-.245-.122-.052-.363-.078-.724-.078Z"/>
        <path class="cls-3" d="M85.713,43.991h-1.144v3.759c0,.217-.048.377-.145.482-.097.105-.221.157-.374.157-.155,0-.282-.053-.379-.159-.098-.106-.146-.266-.146-.48v-3.759h-1.144c-.179,0-.312-.039-.399-.118-.087-.079-.131-.183-.131-.312,0-.134.045-.24.136-.318.091-.078.222-.116.394-.116h3.332c.181,0,.316.04.404.12.088.08.132.185.132.314s-.045.234-.134.312c-.089.079-.224.118-.402.118Z"/>
        <path class="cls-3" d="M87.491,47.75v-4.077c0-.212.048-.371.145-.477.096-.106.221-.159.374-.159.158,0,.285.052.383.157.098.105.146.264.146.478v4.077c0,.214-.049.374-.146.48-.098.106-.225.159-.383.159-.151,0-.275-.054-.372-.161s-.146-.267-.146-.478Z"/>
        <path class="cls-3" d="M91.317,43.674v3.766h2.125c.169,0,.299.041.39.124.091.082.136.186.136.311,0,.127-.045.23-.134.309s-.22.118-.392.118h-2.531c-.228,0-.392-.051-.492-.152-.1-.101-.15-.265-.15-.491v-3.985c0-.212.048-.371.143-.477s.221-.159.376-.159c.158,0,.285.052.383.157.098.105.146.264.146.478Z"/>
        <path class="cls-3" d="M95.277,47.75v-4.077c0-.212.048-.371.145-.477.096-.106.221-.159.374-.159.158,0,.285.052.383.157.098.105.146.264.146.478v4.077c0,.214-.049.374-.146.48-.098.106-.225.159-.383.159-.151,0-.275-.054-.372-.161s-.146-.267-.146-.478Z"/>
        <path class="cls-3" d="M97.938,47.094l2.658-3.18h-2.284c-.16,0-.281-.035-.362-.106-.081-.071-.122-.164-.122-.279,0-.12.041-.217.122-.291s.202-.111.362-.111h2.944c.381,0,.572.178.572.533,0,.169-.032.305-.095.406-.064.101-.192.265-.385.491l-2.485,2.958h2.739c.162,0,.284.034.364.101.08.067.12.161.12.281,0,.125-.04.224-.12.296-.08.073-.201.109-.364.109h-3.36c-.228,0-.4-.051-.515-.154-.115-.102-.173-.239-.173-.411,0-.059.009-.113.028-.162.019-.049.044-.096.076-.139s.076-.099.132-.166c.056-.067.106-.125.148-.175Z"/>
        <path class="cls-3" d="M106.634,47.715l-.247-.65h-2.104l-.247.664c-.097.259-.179.434-.247.524-.068.091-.18.136-.335.136-.132,0-.248-.048-.349-.145-.101-.096-.152-.206-.152-.328,0-.071.012-.143.035-.219.024-.075.062-.18.116-.314l1.324-3.36c.038-.096.083-.212.136-.348s.109-.248.169-.337c.06-.089.139-.162.236-.217s.218-.083.362-.083c.146,0,.268.028.365.083.098.055.176.126.237.214.06.087.111.181.152.281.041.1.094.234.157.401l1.352,3.339c.106.254.159.439.159.554,0,.12-.05.23-.15.33-.1.1-.221.15-.362.15-.082,0-.153-.015-.212-.044-.059-.029-.108-.069-.148-.12-.04-.051-.083-.128-.129-.233-.046-.105-.085-.197-.118-.277ZM104.559,46.278h1.546l-.78-2.135-.766,2.135Z"/>
        <path class="cls-3" d="M110.467,43.666l2.015,3.05v-3.078c0-.2.043-.35.129-.45.086-.1.202-.15.348-.15.151,0,.269.05.356.15.087.1.131.25.131.45v4.07c0,.454-.188.681-.565.681-.094,0-.179-.014-.254-.041-.075-.027-.146-.07-.212-.129-.066-.059-.127-.128-.183-.206-.057-.079-.113-.159-.169-.242l-1.966-3.014v3.032c0,.198-.046.347-.138.448-.092.101-.209.152-.353.152-.148,0-.267-.051-.357-.153s-.134-.251-.134-.447v-3.992c0-.169.019-.302.056-.399.045-.106.119-.192.222-.259.104-.067.215-.101.335-.101.094,0,.175.015.242.046.067.031.126.072.176.124.051.052.102.119.155.201.053.082.108.168.164.258Z"/>
        <path class="cls-3" d="M118.532,43.991h-1.144v3.759c0,.217-.048.377-.145.482-.097.105-.221.157-.374.157-.155,0-.282-.053-.379-.159-.098-.106-.146-.266-.146-.48v-3.759h-1.144c-.179,0-.312-.039-.399-.118-.087-.079-.131-.183-.131-.312,0-.134.045-.24.136-.318.091-.078.222-.116.394-.116h3.332c.181,0,.316.04.404.12.088.08.132.185.132.314s-.045.234-.134.312c-.089.079-.224.118-.402.118Z"/>
        <path class="cls-3" d="M123.677,43.935h-2.361v1.271h2.174c.16,0,.279.036.358.108.079.072.118.166.118.284s-.039.214-.116.288c-.078.074-.198.111-.36.111h-2.174v1.472h2.443c.165,0,.289.038.372.115.084.077.125.178.125.305,0,.122-.042.222-.125.298-.084.077-.208.115-.372.115h-2.848c-.228,0-.392-.051-.492-.152-.1-.101-.15-.265-.15-.491v-3.89c0-.151.022-.274.067-.369.045-.095.115-.165.21-.208.095-.043.217-.065.365-.065h2.767c.167,0,.291.037.372.111.081.074.122.171.122.291,0,.122-.041.221-.122.295-.081.074-.205.111-.372.111Z"/>
        <path class="cls-3" d="M129.6,46.748c0,.313-.081.594-.242.844-.161.249-.397.445-.708.586-.311.141-.679.212-1.105.212-.511,0-.932-.096-1.264-.289-.235-.139-.427-.324-.574-.556-.147-.232-.221-.457-.221-.676,0-.127.044-.236.132-.326.088-.091.201-.136.337-.136.111,0,.204.035.281.106.076.071.142.175.196.314.066.165.137.302.214.413.076.111.184.202.323.274.139.072.321.108.547.108.311,0,.563-.072.757-.217.194-.145.291-.325.291-.542,0-.172-.052-.311-.157-.418s-.24-.189-.406-.245-.388-.116-.665-.18c-.372-.087-.683-.189-.934-.305-.251-.116-.45-.275-.596-.476-.147-.201-.221-.451-.221-.75,0-.285.078-.538.233-.759s.38-.391.674-.51c.294-.119.64-.178,1.038-.178.318,0,.592.039.824.118.232.079.424.184.577.314.153.131.265.268.335.411s.106.284.106.42c0,.125-.044.237-.132.337-.088.1-.198.15-.33.15-.12,0-.211-.03-.274-.09s-.13-.158-.203-.295c-.094-.195-.207-.348-.339-.457-.132-.109-.344-.164-.635-.164-.271,0-.489.059-.655.178-.166.119-.249.262-.249.429,0,.104.028.193.085.268.056.075.134.14.233.194.099.054.199.097.3.127.101.031.268.075.501.134.292.068.556.144.792.226s.438.182.604.3c.166.118.295.267.388.447.093.18.139.401.139.662Z"/>
        <path class="cls-3" d="M134.819,43.666l2.015,3.05v-3.078c0-.2.043-.35.129-.45.086-.1.202-.15.348-.15.151,0,.269.05.356.15.087.1.131.25.131.45v4.07c0,.454-.188.681-.565.681-.094,0-.179-.014-.254-.041-.075-.027-.146-.07-.212-.129-.066-.059-.127-.128-.183-.206-.057-.079-.113-.159-.169-.242l-1.966-3.014v3.032c0,.198-.046.347-.138.448-.092.101-.209.152-.353.152-.148,0-.267-.051-.357-.153s-.134-.251-.134-.447v-3.992c0-.169.019-.302.056-.399.045-.106.119-.192.222-.259.104-.067.215-.101.335-.101.094,0,.175.015.242.046.067.031.126.072.176.124.051.052.102.119.155.201.053.082.108.168.164.258Z"/>
        <path class="cls-3" d="M142.739,47.715l-.247-.65h-2.104l-.247.664c-.097.259-.179.434-.247.524-.068.091-.18.136-.335.136-.132,0-.248-.048-.349-.145-.101-.096-.152-.206-.152-.328,0-.071.012-.143.035-.219.024-.075.062-.18.116-.314l1.324-3.36c.038-.096.083-.212.136-.348s.109-.248.169-.337c.06-.089.139-.162.236-.217s.218-.083.362-.083c.146,0,.268.028.365.083.098.055.176.126.237.214.06.087.111.181.152.281.041.1.094.234.157.401l1.352,3.339c.106.254.159.439.159.554,0,.12-.05.23-.15.33-.1.1-.221.15-.362.15-.082,0-.153-.015-.212-.044-.059-.029-.108-.069-.148-.12-.04-.051-.083-.128-.129-.233-.046-.105-.085-.197-.118-.277ZM140.663,46.278h1.546l-.78-2.135-.766,2.135Z"/>
        <path class="cls-3" d="M147.93,43.991h-1.144v3.759c0,.217-.048.377-.145.482-.097.105-.221.157-.374.157-.155,0-.282-.053-.379-.159-.098-.106-.146-.266-.146-.48v-3.759h-1.144c-.179,0-.312-.039-.399-.118-.087-.079-.131-.183-.131-.312,0-.134.045-.24.136-.318.091-.078.222-.116.394-.116h3.332c.181,0,.316.04.404.12.088.08.132.185.132.314s-.045.234-.134.312c-.089.079-.224.118-.402.118Z"/>
        <path class="cls-3" d="M149.674,46.162v-2.488c0-.212.048-.371.143-.477.095-.106.221-.159.376-.159.162,0,.291.053.386.159s.143.265.143.477v2.545c0,.289.032.531.097.725.065.194.179.345.344.452.165.107.395.161.692.161.409,0,.699-.109.868-.326.169-.218.254-.548.254-.99v-2.566c0-.214.047-.374.141-.478.094-.105.22-.157.378-.157s.285.052.383.157c.098.105.146.264.146.478v2.488c0,.405-.039.742-.118,1.013s-.228.508-.447.713c-.188.174-.407.301-.657.381s-.541.12-.875.12c-.398,0-.74-.043-1.027-.129-.287-.086-.521-.219-.702-.399s-.314-.411-.399-.692c-.085-.281-.127-.617-.127-1.008Z"/>
        <path class="cls-3" d="M157.145,46.088h-.367v1.662c0,.219-.048.38-.145.484-.096.103-.222.155-.378.155-.167,0-.296-.054-.388-.162s-.138-.267-.138-.477v-3.981c0-.226.051-.389.152-.491s.265-.152.491-.152h1.705c.235,0,.436.01.604.03.167.02.318.061.452.122.162.068.306.166.431.293.125.127.219.275.284.443.065.168.097.347.097.535,0,.386-.109.694-.326.925-.218.231-.548.394-.99.491.186.099.364.245.533.438s.321.398.454.616.237.414.311.589c.074.175.111.296.111.362,0,.068-.022.136-.065.203-.044.067-.103.12-.178.159-.075.039-.162.058-.261.058-.118,0-.217-.028-.296-.083-.08-.055-.149-.125-.206-.21-.058-.085-.136-.209-.235-.374l-.42-.699c-.151-.256-.285-.452-.404-.586-.119-.134-.24-.226-.362-.275-.122-.049-.277-.074-.462-.074ZM157.745,43.914h-.967v1.422h.939c.252,0,.464-.022.635-.065.172-.044.303-.118.394-.222.091-.105.136-.249.136-.432,0-.143-.037-.27-.109-.379-.073-.109-.174-.191-.304-.245-.122-.052-.363-.078-.724-.078Z"/>
        <path class="cls-3" d="M164.825,47.715l-.247-.65h-2.104l-.247.664c-.097.259-.179.434-.247.524-.068.091-.18.136-.335.136-.132,0-.248-.048-.349-.145-.101-.096-.152-.206-.152-.328,0-.071.012-.143.035-.219.024-.075.062-.18.116-.314l1.324-3.36c.038-.096.083-.212.136-.348s.109-.248.169-.337c.06-.089.139-.162.236-.217s.218-.083.362-.083c.146,0,.268.028.365.083.098.055.176.126.237.214.06.087.111.181.152.281.041.1.094.234.157.401l1.352,3.339c.106.254.159.439.159.554,0,.12-.05.23-.15.33-.1.1-.221.15-.362.15-.082,0-.153-.015-.212-.044-.059-.029-.108-.069-.148-.12-.04-.051-.083-.128-.129-.233-.046-.105-.085-.197-.118-.277ZM162.75,46.278h1.546l-.78-2.135-.766,2.135Z"/>
        <path class="cls-3" d="M167.334,47.75v-4.077c0-.212.048-.371.145-.477.096-.106.221-.159.374-.159.158,0,.285.052.383.157.098.105.146.264.146.478v4.077c0,.214-.049.374-.146.48-.098.106-.225.159-.383.159-.151,0-.275-.054-.372-.161s-.146-.267-.146-.478Z"/>
        <path class="cls-3" d="M174.065,46.748c0,.313-.081.594-.242.844-.161.249-.397.445-.708.586-.311.141-.679.212-1.105.212-.511,0-.932-.096-1.264-.289-.235-.139-.427-.324-.574-.556-.147-.232-.221-.457-.221-.676,0-.127.044-.236.132-.326.088-.091.201-.136.337-.136.111,0,.204.035.281.106.076.071.142.175.196.314.066.165.137.302.214.413.076.111.184.202.323.274.139.072.321.108.547.108.311,0,.563-.072.757-.217.194-.145.291-.325.291-.542,0-.172-.052-.311-.157-.418s-.24-.189-.406-.245-.388-.116-.665-.18c-.372-.087-.683-.189-.934-.305-.251-.116-.45-.275-.596-.476-.147-.201-.221-.451-.221-.75,0-.285.078-.538.233-.759s.38-.391.674-.51c.294-.119.64-.178,1.038-.178.318,0,.592.039.824.118.232.079.424.184.577.314.153.131.265.268.335.411s.106.284.106.42c0,.125-.044.237-.132.337-.088.1-.198.15-.33.15-.12,0-.211-.03-.274-.09s-.13-.158-.203-.295c-.094-.195-.207-.348-.339-.457-.132-.109-.344-.164-.635-.164-.271,0-.489.059-.655.178-.166.119-.249.262-.249.429,0,.104.028.193.085.268.056.075.134.14.233.194.099.054.199.097.3.127.101.031.268.075.501.134.292.068.556.144.792.226s.438.182.604.3c.166.118.295.267.388.447.093.18.139.401.139.662Z"/>
      </g>
    </g>
  </g>
</svg>