<?xml version="1.0" encoding="UTF-8"?>
<svg id="Camada_2" data-name="Camada 2" xmlns="http://www.w3.org/2000/svg" viewBox="0 0 100.12 78.755">
  <defs>
    <style>
      .cls-1 {
        fill: #1b523b;
      }

      .cls-2 {
        fill: #1d1d1b;
      }

      .cls-3 {
        fill: #611a1a;
      }
    </style>
  </defs>
  <g id="Camada_1-2" data-name="Camada 1">
    <g>
      <path class="cls-1" d="M19.935,55.992s-8.686-29.071,15.189-40.525c11.474-5.505,34.04-2.027,43.147-15.467,0,0,2.685,21.171-12.106,33.11-14.791,11.939-35.204,8.895-41.631,17.886,0,0-.643-11.741,7.738-17.215,6.205-4.053,9.374-4.893,13.928-6.308-5.778.914-20.134,4.481-23.745,12.403-4.01,8.798-2.52,16.117-2.52,16.117Z"/>
      <g>
        <path class="cls-2" d="M.862,53.794l.248-.044c.075-.016.211,0,.408.049l.344-.193.247.164.229-.071.031.1.149-.155.1-.031.095.167.177-.098.086.137.809-.206.025.08-.096.183.173.066-.019-.202.329-.102.505-.309.623.004-.127.083.935-.082-.026.27,1.391.018.086.137c.217-.052.467-.064.753-.036l.167-.095.155.149c.311-.074.623-.102.935-.082l.198-.17.399-.014.268.233.189-.058.14.241.278.122.126.267-.139.043-.084.539-.428.7-.203.51-.139.043c-.026.081-.101.275-.224.582l-.194.114c-.074.045-.132.103-.175.174l-.168.27-.004.165-.139.043c-.162.443-.333.71-.516.803l-.003.132-.152.003-.05.332,1.364.07,1.035-.112,1.302.012.317.109.241-.031c.071-.007.256.041.557.144l.018.06.45-.204.412.026.167-.095c.075.101.289.289.644.565l.341-.062.11.075.428-.132.291.27-.134.238.248.131.179-.055.226.061c.002.312-.031.537-.097.674-.067.137-.148.275-.243.413l-.003.132c-.279.297-.437.47-.473.517l-.113.199c-.048.08-.103.279-.165.597l-.264.027.019.202-.177.098-.024.204-.297.168-.534.602-.229.071-.124.093-.017.158-.12.037-.017.158-.25.285-.106.186-.254.166-.167.237c-.057.076-.154.15-.292.221l-.16.366-.424.218-.832.77-1.621,1.145-.33.309-.231.028-.273.281-.461.273c-.056.032-.16.14-.314.326l-.369.114-.463.656-.316.141c-.122.169-.203.343-.242.522l-.298.201-.231.028-.425.426-.53.12-.29-.161-.005-.511.267-.443-.244-.437.125-.442-.029-.198c-.001-.051.023-.254.073-.612l-.241-.286.093-.192-.178-.294.118-.396.097-.074-.083-.269c.131-.142.224-.276.279-.403l-.137-.198.191-.124-.143-.25.136-.195-.089-.289.026-.412-.107-.523-.173-1.55-.146-.119.013-.31-.25-.174.279-.403-.313.01-.267-.583.093-.192-.278-.263c.051-.118.062-.339.035-.665l.261-.321-.009-.313-.083-.127.175-.458-.473-.367.175-.458-.351-.252-.055-.179.1-.347-.095-.309.136-.195-.109-.566-.173-.067-.145-.468-.016-.192-.291-.27-.861.179-1.21.461-.204-.341-.245.196-.094.225-.262-.072-.316-.35-.006-.162.202-.019.265-.944.395-.733ZM6.723,61.323l-.14.043.058.189-.149.046-.164.247-.301.049.037.545.819,1.875-.189.659.023.462.168.155-.077.776.126.408c-.038.208-.109.365-.215.47l.229.246-.179.055.24.635.235.091.217-.144.095-.117.263-.103c.076-.038.175-.127.299-.267l.421-.086.558-.489h.208s.342-.41.342-.41l.666-.457c.191-.183.286-.299.285-.35l.549-.06.069-.272.374-.203c.042-.028.135-.129.277-.304l.179-.055.203-.226-.043-.139.319-.098.432-.581,1.175-.963.276-.554.623-.596.125-.442-.446-.419-.445-.026-.629-.199-.38-.243c-.327-.023-.507-.051-.539-.085l-.263.245-.557-.144-.113.024-.113.024-.143.033c-.049.008-.108.004-.178-.011l-.282-.066-.433.188-.816.045-.15-.063-.149.046-.198-.146-.335.223-.015.092-.279.086-.214-.021-.084.222-.232-.081-.306.138-.232-.081-.009.112-.459.033-.31.161-.126-.125ZM5.676,55.46l-.2.378-.012.244-.092.268c-.031.112-.016.267.046.466l.068.219-.154.56.206.384-.195.18c.082.382.126.739.135,1.071.182.002.31.028.384.078l.455-.61c.146-.118.321-.281.525-.49l.294-.32.59-.422.061-.226.316-.141.488-.576.332-.233.08-.025.212-.338-.071-.371-.167.095-.4-.128-.22-.041-.198-.146-.68-.117-.316.141-.606-.02-.88.119Z"/>
        <path class="cls-2" d="M22.357,57.229l-.042.003-.045.547.088.057-.118.395-.047-.07.011.156c.022.305-.086.605-.323.901l.083-.006.013.187-.042.003.128,1.214-.073.151.056.195-.102.77.052-.004c.01.139-.011.339-.062.6l-.074.287-.027,1.392c-.018.141-.026.221-.025.242.009.125.069.183.18.175.132-.009.273-.072.426-.187l.643-.505c.171-.242.298-.366.381-.372l.062-.004c.114-.064.218-.165.313-.304.095-.139.169-.221.223-.246.091-.195.178-.295.261-.301.007,0,.035.005.085.015.049.011.179.026.39.045l.104.285c.011.16-.031.345-.128.558-.096.212-.173.389-.229.528-.056.14-.196.259-.419.359l.005.073-.149-.031.01.146-.094.007c-.007.189-.097.303-.268.343l.004.062-.281.02.003.042-.104.007-.267.207-.083.006-.132.208-.422.093c-.036.086-.099.132-.189.139l-.503.422.006.083-.263-.023.08.099-.337.108.004.052-.146.01.01.146-.149.115-.042.003.003.042c-.072.263-.191.4-.358.412l-.149-.031c-.101-.251-.262-.497-.481-.739.04-.226.056-.391.049-.495l-.114-.42-.016-.229c-.015-.215-.01-.438.015-.67l.043-.275-.004-.052h-.021c-.014.002-.021-.004-.022-.018,0-.014.024-.127.075-.34.051-.213.065-.485.041-.818-.006-.083-.041-.129-.104-.139l.115-.29-.089-1.258.141-.376c.047-.115.087-.337.12-.667.086-.062.134-.118.145-.167l-.092-.119.068-.214c-.126-.207-.262-.305-.408-.295l-.489.035c-.052.059-.075.124-.07.193l-.073.005c-.021.19-.103.31-.246.362-.022.183-.115.297-.279.344l-.166.315-.042.003c-.038.156-.119.238-.244.247-.139.01-.258-.083-.359-.278-.101-.195-.152-.303-.154-.324-.002-.028.01-.06.035-.097.048-.31.245-.578.591-.805l-.006-.083c.141-.163.289-.289.444-.376l-.094.007c.294-.084.458-.25.492-.5.035-.25.208-.386.52-.408l.128.033.251-.143-.156.011.228-.173.065.037.171-.242.055.038c.069-.207.252-.321.551-.342.069-.005.102-.035.098-.091l-.007-.104.083-.006-.045-.039.326-.263c.097-.202.267-.312.51-.329.152-.011.289.021.409.096s.183.154.189.237c.006.09-.033.222-.118.395ZM23.433,51.039l-.062.004-.327.849-.045-.039c.005.076-.025.145-.09.205l.003.042c-.135.254-.313.444-.534.571l-.086-.036.006.083c-.273-.015-.487-.058-.641-.127-.155-.069-.275-.193-.361-.371-.086-.178-.171-.366-.254-.562.094-.153.174-.246.242-.278l.063-.287.33-.212.158-.419.33-.212.004.062.193.07c.046-.031.078-.056.094-.075.016-.018.039-.041.068-.068.029-.026.109-.06.238-.101.129-.041.227-.084.294-.131l.11-.07.083-.006.173.228.024.333.063.299-.077.246Z"/>
        <path class="cls-2" d="M31.345,55.013h.532l.344.156c.083.368.219.552.407.552.069,0,.104-.069.104-.208.215-.16.413-.24.594-.24.111,0,.205.038.281.115.076.077.118.153.125.229l.083,1.188-.063.24c-.049.16-.083.33-.104.511-.021.181-.054.323-.099.427-.045.104-.078.17-.099.198l-.844.897.104.615-.219.365-.104.334-.657.751-.323.813c-.195.216-.473.386-.834.511l-.146.594-.605.386-.532.646-.959.719-.281.073-1.084.876-.302-.281c-.236-.181-.401-.335-.495-.464-.094-.129-.141-.245-.141-.349,0-.056.021-.104.062-.146l.104-.897-.448-.73c-.042-.063-.063-.118-.063-.167,0-.083.042-.177.125-.281v-.042l.177-.167-.198-.521.063-1.084v-.281l.156-.083c-.077-.139-.115-.302-.115-.49,0-.104.045-.212.136-.323h.188l-.167-.146.125-.229.219-.563.313-.386.094-.292.313-.427c.028-.097.056-.184.083-.261v.021c0-.111.026-.201.078-.271.052-.069.134-.198.245-.386l.511-.261.042-.146c.347-.278.692-.448,1.032-.511l.699-.135.469-.271.344.021.73-.198ZM30.698,56.879l-.042.083c-.125,0-.216.002-.271.005-.056.004-.135.051-.24.141l-.302-.125-1.147.636c-.285.16-.528.422-.73.787-.202.365-.302.666-.302.902,0,.146.031.275.094.386h.042c0,.16.042.452.125.876l-.261.407.198.292-.104.365c0,.049.028.134.083.255.055.122.082.212.078.271-.004.059.054.182.172.37l-.021.219c0,.382.094.573.282.573.153,0,.358-.108.615-.323.063-.181.184-.278.365-.292l.104-.323c.118-.014.177-.069.177-.167v-.073c.035-.021.073-.042.115-.063.042-.021.066-.035.073-.042.083-.271.247-.577.49-.917l.073.042-.031-.083.323-.365.407-1.345.063-.125.135-.042.01-.24v-.188c.007-.042.059-.17.156-.386l-.646-.511.5-.198-.073-.573.094-.209-.136.063-.469-.083Z"/>
        <path class="cls-3" d="M44.91,48.194l.49.063.24.386-.042.469c.021.09.04.169.057.235.017.066.047.28.089.641l.083.25v.386l.24.24v.146l.344,2.71h.104l.146.188h-.334c.132.382.243.775.334,1.178l.344.125.323-.271.344.146h.146l.042.042.063-.042c.028.028.17.056.427.083l.532-.386.834.052.042-.156.532.156.928-.24.188-.188c.069-.076.16-.132.271-.167l.417-.136.188.302h.344l.146.427c-.132.271-.261.469-.386.594l-.104-.063-.834.876-.427.292h-1.022l-.573.156-.5-.115-1.001.427-.063-.042-.615.261.146,2.262h.042v.104l-.146.156.146.125.042.49.104.104-.104.198.198.271.104.834.146.198.146-.052.052.135-.021.146h-.135l.042,1.22c-.125.209-.254.386-.386.532l-.375.042-.115.302-.271-.042.042.271-.167.209c-.049.063-.236.194-.563.396l-.365-.302c-.042-.028-.09-.104-.146-.229l-.125-.302v-.584l-.198-.917-.083-.146.083-.594-.083-.511.198-.407-.24-.855c.063-.132.104-.309.125-.532l-.083-.156.083-.448c0-.125-.042-.382-.125-.771l.188-.417-.062-.688-.313-.188-.219.083v-.083l-.469.042.042.292-.229-.063-.261.063-.063.042c-.32.16-.633.24-.938.24l-.302-.042-.615.188-.646.115-.042.271-.448-.188v.188h-.083l-.302.302h-.427l.156.427-.407-.083-.626.375-.146.156-.344-.104-.386.292h-.375v.281l-.386.063-.156.344-.188.188-.261.667.073.063c-.021.063-.135.191-.344.386l-.042.573-.302.229.042.115h-.146v.229l-.344.261v.083c-.049.049-.129.177-.24.386h-.083l-.25.73-.094-.136v.083l-.25.198-.063.198c-.014.069-.087.167-.219.292l-.386-.146c-.042-.118-.076-.184-.104-.198l.042-.146v-.083l.063-.198c-.076-.132-.125-.396-.146-.792l.146.073-.104-.115v-.146l.042-.042-.083-.261.083-.188-.104-.24.063-.083c-.014-.153-.028-.365-.042-.636l.198-.156.573.448h.344l1.209-1.512-.188-.125.042-.219-.386.156-.063.104-.083-.042-.24.125c-.07.042-.219.077-.448.104l-.344-.448c.167-.424.316-.664.448-.719,0-.076.115-.233.344-.469l.24-.073-.042-.042.386-.532h.042l.917-.188.104.188.188-.042.042.042h.115l.083-.188.302.042v-.083l.229-.198-.146-.25.188-.281.49-.188-.042-.115.063-.156c.014-.049.121-.16.323-.334.132-.528.275-.834.427-.917h-.083l.49-.615.042.042.73-1.157h-.042l.271-.407h.063l.584-1.063h.083l.49-.813.146-.042.24-.448c.028-.028.09-.184.188-.469l.344-.261v-.042l.188-.49.115-.042.042-.386h.146l.042-.146h.042l.115-.24.824-.49.427-.292ZM43.273,51.311l-.344.083v.146l-.344.344h-.104l-.469.678h-.042l-.344.667v.104l-.125.188c-.042.077-.101.136-.177.177l-.292.167-.135.344c-.042.097-.077.341-.104.73l-.188-.042-.042.271-.386.302.042.042v.24l-.344.146-.271.761c-.049.146-.101.261-.156.344l-.25.344.042.063v.042l.104.052h.615l.261.146.813-.49.678-.042.042.146.063-.261h.386l.688-.188.188.063.427-.146v-.042l.646-.219v-.042l.803-.188v-.24l-.271-.25v-.813l.229-.532-.229-.156-.302.156-.386-.542.542-.042v-.146l-.646-.146.062-.156-.188-.229.125-.198-.344-.532.063-.104.094-.042-.156-.156-.125-.719-.146-.083Z"/>
        <path class="cls-3" d="M63.111,48.8l.294.083.021.15.139.061-.1.418-.022.155-.165.124-.077.326c-.048.197-.14.353-.275.467l.123.101-.252.07-.033.238-.259.196-.053.382-.066-.051-.16.241-.11.416c-.015.054-.08.143-.195.268l.029.246-.129.245c-.057.104-.113.177-.167.219l-.247.187-.053.382.098.056-.186.585.045.133-.32.408-.053.382-.212.16-.067.485-.285.308-.027.196.081.095-.092.282.092.171c-.133.199-.301.32-.503.362l-.082.283.132.113-.325.144.011.223-.079.263c.369.023.586.025.652.006l.174.108-1.015.943-.45,1.116-.213.097-.006.347-.097.092.02.161-.053.077-.062.444.003.285-.083-.011-.096.239-.172.102-.083-.011-.075.537.182.13-.285.308.083.011-.067.18.128.218-.026.186.124.165-.109.332.076.211-.105.754-.15.021.097.361-.042.299.087.738.434,1.418-.041-.006.289.345c.155.351.284.629.389.833.197.147.307.264.33.351l.093.013-.014.103.189.153.124.017.176.172c.292-.03.51-.157.653-.383.147,0,.336-.073.567-.216l.15.358-.162.03-.026.186-.2.077.008.243-.026.186.15-.021-.047.341-.309.104.051.091-.15.021-.088.104.061.093-.155-.022.027.109c-.178.017-.395.089-.651.215-.064-.044-.203-.228-.418-.553l-.443.086-.181-.288-.057-.197-.055-.06c-.025-.024-.046-.064-.062-.119-.017-.055-.038-.119-.063-.193l.026-.186-.122-.259.014-.103-.169-.15-.871-1.458-.481-1.235.082-.136-.195-.416.2-.077-.055-.208.011-.535-.057-.197-.055-.439-.147-.305c-.022-.045-.031-.155-.028-.33l.007-.578.059-.423-.052-.007.175-.428-.03-.236-.273-.08.11-.185.092.097-.06-.629-.217.201.27-.583-.145-.02-.006.041-.149-.063-.529.4-.036-.047-.309.104-.027.196-.263.153-.014.103-.145-.02-.194.11c-.061.034-.186.051-.376.053l.02.234-.259.122c-.107.266-.219.443-.337.532l-.02.145-.207.129-.032.227-.18-.067-.358.529-.424.099-.108.174-.202.014-.01.072-.306.084-.041-.006c-.036-.244-.094-.41-.173-.498l-.011.083c-.123-.228-.219-.371-.288-.429l.011-.535.095-.229.02-.145c-.032-.124-.069-.21-.112-.258l.103-.133.02-.145.104-.291-.16-.212.204-.108c-.069-.213-.088-.43-.057-.65l.02-.145.074-.232-.048-.259.23-.294-.014-.655.103.014.139-.318.022-.155.103.014.132-.95.159-.083.106-.459.027-.196.341.047.156-.515.329.13.322-.576.026-.186.051.091c.11-.139.258-.392.442-.76l.149-.085.022-.155.04.164.083-.294.192-.016.147-.222.014-.103.15-.021c.055-.091.27-.254.647-.489l.03.088.181-.164.177.088.091-.05.013-.093.108.057.203-.403.446.199-.036-.047.299.042-.067-.051.162-.03.496.143.56.436-.207-.029.387.17-.011.083.227.337c.042.308.085.472.132.492l.152-.032.143-.275.208-.055.067-.485.063-.149.15-.021.006-.347.103-.133.255-.091-.055-.208.05-.056-.185-.11.267-1.921.176-.133c.047-.134.087-.22.12-.257l-.031-.078.079-.568-.258.112-.18-.067c-.031.024-.122.043-.271.057l-.067.18-.32.103-.124-.017-.222-.22-.081-.401-.095-.076.12-.11-.062-.314.123-.13.202-.014.063-.149.192-.016.244-.313.103.014.056-.098.843-.462.053-.077.341.047.016-.114.087.128.145.02.063-.149c.134-.002.254-.035.361-.097l.961.049ZM56.834,55.948l-.12.257-.719.248-.387.588-.157.073-.041-.006-.113.132-.056-.05-.114.216.067.125c-.103.337-.193.531-.271.583l-.026.186c-.13.073-.245.226-.348.457l-.103-.014-.032.227-.206.424.07.252c-.191.366-.341.609-.448.727l.064.146-.053.382.099.119-.186.206v.305s.164.254.164.254l.011-.083.133.103.317-.082.077.053.614-.557.15-.021.006-.041.341-.258.361-.097.266-.247.164-.04.544-.356.718-.395.19-.384c.019-.039.124-.134.313-.283.092-.261.2-.453.322-.576l-.252-.382.065-.77-.007-.254.011-.083c-.062-.114-.096-.22-.103-.32l-.155-.022-.073.221-.242-.076.032-.227-.099.028-.021-.15-.303.063-.285-.145-.008-.243-.17-.213Z"/>
        <path class="cls-3" d="M69.701,54.572l.266.427c-.208.28-.374.537-.498.772l-.414.174-.116.226.074.074-.026.186.03.088-.098.102-.032.227-.192.32-.159.083c-.152.281-.267.524-.345.731l-.253.154-.12.331.067.051-.3.263-.032.227-.099.102.044.585-.192.468.003.579.044.438-.054.382.015.497-.11.185-.08.568c.211-.055.365-.128.462-.219l.19.069.02-.145.55-.397.247-.113.016-.114.428-.277.151-.326c.177-.059.317-.135.421-.225l.03.088.026-.186.243-.155-.014.103.103-.133.145.02.016-.114.053-.077.196.027.062-.139-.008-.243.795-.489c.083-.044.14-.096.169-.155l.148-.232c.141-.057.275-.088.402-.091l.063-.149.115-.068.134.019.026-.186.042.153.026-.186c.078-.108.15-.172.216-.191l.059-.118.559-.458.196.027.213-.17.253-.375c.382-.318.604-.529.668-.633l.307-.01.336-.448-.119.247.424-.246.205.187.327-.154.382.054.164.181.02.382-.199.141c-.062.041-.157.168-.285.381l.036.195-.151.326-.02.145-.177.133-.038.268-.194.036-.075.537-.073.221.008.243-.222.158.077.274-.14.17.048.481-.15.242-.255,1.817.06.398.166.171.388.012.16.212-.075.232-.262.069-.126.224-.192.015-.179.228-.155-.022-.116.226-.464.082-.184.258-.593.022-.26.206-.5.035-.216-.188-.101-.635.222-.232-.077-.2.171-.166.202-.014.43-1.414.026-.186-.088-.275.208-.055-.046-.196.108-.248-.185-.11-.083-.159.207-.129.032-.227.15-.242c-.166-.171-.282-.264-.35-.281l.007-.504-.196-.027-.133-.103-.244.313-1.214.998-.216.117-.062.139-.949.835-.12.183-1.009.89-1.214.998-.345.131c-.044.015-.126.095-.244.24-.311.069-.482.108-.511.118l-.014.103-.126-.081-.042.299-.315.145-.376-.095-.421.225-.042-.153-.219-.168-.007-.254c-.093-.09-.159-.215-.2-.375l-.226-.116-.049-.249.087-1.672.23-.589.083.012.062-.444.263-.153-.014-.202.192-.32.186.026.059-.118v-.295s.161-.03.161-.03l.088-.325.047-.035-.102-.172.164-.272.048-.341.163-.714.083.012.048-.341.228-.2-.127-.218.19-.226-.034-.131.25-.354-.252-.383-.192.015-.067.18-.286.013-.138.233-.341-.048-.118-.206-1.2.221-.23-.538.434-.318c.211-.055.356-.164.435-.328l.349-.014.013-.093.299.042.388.012.31-.409.366.167.439-.054c.028-.052.084-.1.168-.145l.341.048-.033-.068.088-.03.238.033.078-.105c.159-.034.329-.122.511-.265l.186.026.182-.174.15-.021.139.062.211-.076.089.118.109-.174.103.014Z"/>
        <path class="cls-3" d="M86.701,48.138l.303.175v.192s-.034.153-.034.153l.041.244-.114.081-.021.284-.24.213-.059.265h-.192s-.048.406-.048.406l-.345.254-.817,1.216-.634,1.257-.236.385-.018-.111-.251.595-.032-.05-.109.916-.255.231-.046.203.049.257-.111.018-.063-.1-.019.274-.075.143-.147.181c-.039.048-.142.267-.308.658l-.05.032.229.361-.091.215c-.155.022-.312.105-.472.247l.183.041-.014.061.214.048.349.206c.311-.087.562-.109.752-.067l.408.134.304.025.018.111.349.014.018.111.408-.058.262.166-.05.032.153.034.521-.182.17.102.025-.112.59.132.843.434.126.295.057-.062c.264.123.527.285.788.486l.018.111.243.3-.477.748-.109.104-.142-.032-.073.133-.098.437-.048-.118-.084.184-.317.079-.185.397-.339.18.041.105-.102-.023.032.05-.175.068-.082.174c-.205.025-.466.252-.782.679l-.088-.084.018.111-.202-.003-.084.184-.093-.064-.082.174-.327.173-.023.102-.143.16-.133-.073.043.095-.311.005-.027.122-.442.211.018.111-.129.099-.122-.027-.043-.095-.113.124-.112-.025.031.146-.156.029-.161.242-.095.043-.02.092-.193-.043-.143.16-.072-.059c-.148.216-.296.35-.443.403l-.018.081-.102-.023.006.162-.102-.119-.091.119-.153-.034-.154.307-.133-.073-.135.173c-.281.08-.448.142-.501.187l.021.144-.092-.02-.023.102-.142-.032c-.16.078-.272.117-.336.117l-.032-.05-.226.152c-.202.076-.366.157-.492.242l-.243-.108-.755.365-.023.102-.153-.034c-.327.219-.572.345-.737.38l-.064.093-.111.018-.144.213-.084-.104-.265.133-.027-.07-.187.311-.122-.316-.363-.145-.197.02-.121-.177.268-.292.247-.052.2.109.389-.308.066-.295.184-.108.186-.354.286-.182c.116-.074.199-.141.248-.201l.207-.306.221-.079-.13-.136.237-.15.023-.294c.065-.292.186-.542.361-.753l-.018-.111.411-.261.075-.336-.04-.297.166-.262.377-1.016c-.072-.187-.106-.323-.101-.407l.236-.193-.004-.268.111-.21-.018-.207.107-.67.307-1.181c.136-.098.231-.222.287-.374l.142.032.05-.224.127-.089-.093-.063.125-.079-.022-.091.066-.295-.043-.095c.132-.177.287-.345.466-.505l-.109-.227.093-.129.151-.052.052.054.125-.175-.192-.193.143-.449.183-.151-.036-.318c.182-.337.314-.542.394-.617l.012-.339.341-.522-.007-.301.052-.234.094-.086-.109-.227.132-.398c.113-.124.238-.317.375-.578l-.04-.201-.225-.189.023-.294-.426-.053-.238.203c-.143.16-.283.286-.421.376-.138.09-.27.196-.397.317l-.081-.018-.37.077-.498-.208-.204.051-.174-.178c-.052-.054-.145-.242-.28-.565l.245.098.134-.408,1.454-.721c.185-.001.305-.01.358-.027l.714-.278h.192c.173-.103.276-.198.309-.283l.336-.117.476-.406.829-.552.325.03.104-.18.183.041c.243-.067.409-.094.499-.081l.085-.045ZM85.278,59.742l-.091.022-.245-.098-.152.009.047.075-.152.009-.059.072-.034-.136-.069.07-.206-.132-.404.038c-.049-.068-.138-.131-.268-.188-.276.088-.453.13-.53.127-.049.124-.145.203-.288.235l-.027-.07-.146.128-.02-.101-.05.032-.142-.224-.102-.023-.028-.113-.183-.041c-.117.237-.268.449-.452.636l.136.49-.446.894.087.329c.03.121.015.313-.044.578l-.132.398-.016.263-.295.126-.294,1.312-.081-.018-.049.694-.073.133-.003.202.257-.049.429-.342.503-.197.889-.677.123-.122.197-.02c.188-.172.304-.292.348-.36l.163-.06.574-.416.086-.194.397.089v-.288s.261-.113.261-.113l.183-.29.407-.101.606-.655.114-.081.021-.092.24-.406-.049-.641c-.404-.233-.636-.438-.696-.615l-.245-.098Z"/>
        <path class="cls-3" d="M98.065,60.322l.501.178.272.262c-.045.375.021.594.198.657.065.023.121-.03.168-.162.256-.079.47-.088.64-.027.105.037.18.105.227.202.046.098.06.184.041.258l-.319,1.148-.139.205c-.099.134-.189.283-.269.446-.08.163-.159.287-.236.37-.078.083-.131.134-.16.153l-1.096.562-.108.614-.328.271-.21.279-.87.487-.577.658c-.256.138-.575.205-.957.202l-.336.511-.699.161-.717.431-1.145.357-.29-.025-1.315.462-.191-.366c-.162-.249-.266-.45-.311-.603-.045-.153-.051-.278-.016-.376.019-.052.054-.091.108-.117l.398-.81-.178-.838c-.018-.073-.019-.132-.003-.178.028-.079.099-.153.212-.223l.014-.039.223-.098-.012-.557.422-1.001.094-.265.175-.026c-.026-.157-.007-.323.056-.5.035-.098.113-.185.236-.259l.177.063-.108-.193.195-.174.395-.457.424-.259.186-.244.438-.298c.059-.082.114-.155.166-.218l-.007.02c.037-.105.092-.181.164-.229.072-.048.192-.142.36-.281l.569-.075.088-.124c.42-.146.802-.191,1.144-.136l.704.106.533-.098.317.135.754.058ZM96.831,61.864l-.067.065c-.118-.042-.204-.07-.257-.086-.054-.015-.145.002-.273.052l-.243-.219-1.293.215c-.322.055-.639.221-.951.497-.312.276-.508.526-.587.749-.049.138-.063.269-.041.395l.039.014c-.054.151-.112.44-.175.867l-.382.296.089.341-.22.309c-.016.046-.019.135-.007.269.012.133.006.227-.017.282-.023.055-.01.19.038.406l-.093.199c-.128.36-.104.572.073.634.144.051.373.018.688-.099.119-.149.266-.2.442-.153l.206-.27c.116.026.19-.006.223-.098l.024-.069c.04-.008.083-.015.129-.021.046-.006.074-.011.083-.015.169-.227.425-.461.769-.7l.055.064-.002-.089.427-.236.833-1.131.101-.097.142.006.09-.222.063-.177c.02-.037.113-.141.276-.311l-.438-.698.538-.019.123-.565.158-.165-.149.014-.414-.236Z"/>
      </g>
      <g>
        <path class="cls-3" d="M8.52,75.023h-1.73v1.109h1.446c.134,0,.234.03.3.09.066.06.099.14.099.241s-.034.18-.101.239c-.067.059-.167.089-.299.089h-1.446v1.428c0,.181-.041.316-.123.404-.082.088-.187.132-.315.132-.13,0-.236-.044-.318-.133s-.123-.223-.123-.402v-3.336c0-.126.019-.229.056-.309.037-.08.096-.138.176-.174.08-.036.182-.055.306-.055h2.07c.14,0,.244.031.312.093s.102.143.102.244c0,.103-.034.185-.102.247s-.172.093-.312.093Z"/>
        <path class="cls-3" d="M12.929,75.023h-1.978v1.065h1.822c.134,0,.234.03.3.09.066.06.099.139.099.238s-.032.179-.098.241c-.065.062-.166.093-.302.093h-1.822v1.233h2.046c.138,0,.242.032.312.096.07.064.105.149.105.256,0,.103-.035.186-.105.25-.07.064-.174.096-.312.096h-2.386c-.191,0-.329-.042-.412-.127-.084-.085-.126-.222-.126-.411v-3.259c0-.126.019-.229.056-.309.037-.08.096-.138.176-.174.08-.036.182-.055.306-.055h2.318c.14,0,.244.031.312.093.068.062.102.143.102.244,0,.103-.034.185-.102.247-.068.062-.172.093-.312.093Z"/>
        <path class="cls-3" d="M15.776,76.827h-.308v1.393c0,.183-.04.318-.121.405-.081.087-.186.13-.316.13-.14,0-.248-.045-.325-.136s-.115-.224-.115-.399v-3.336c0-.189.042-.326.127-.411s.222-.127.411-.127h1.428c.197,0,.366.008.506.025.14.017.266.051.378.102.136.057.256.139.361.245.104.106.184.23.238.371.054.141.081.29.081.448,0,.323-.091.582-.274.775-.182.193-.459.33-.829.411.156.083.305.205.447.367s.269.334.38.516.198.347.26.494c.062.147.093.248.093.303,0,.057-.018.114-.055.17-.037.056-.086.101-.149.133-.063.033-.136.049-.219.049-.099,0-.181-.023-.248-.069-.067-.046-.125-.105-.173-.176-.048-.071-.114-.175-.197-.313l-.352-.585c-.126-.215-.239-.378-.339-.491-.1-.112-.201-.189-.303-.231-.103-.041-.232-.062-.387-.062ZM16.279,75.005h-.81v1.192h.787c.211,0,.388-.018.532-.055.144-.036.254-.099.33-.186.076-.088.114-.208.114-.362,0-.12-.031-.226-.092-.318-.061-.092-.146-.16-.254-.206-.102-.043-.305-.065-.606-.065Z"/>
        <path class="cls-3" d="M21.95,75.07h-.958v3.149c0,.181-.04.316-.121.404-.081.088-.185.132-.313.132-.13,0-.236-.044-.318-.133-.082-.089-.123-.223-.123-.402v-3.149h-.958c-.15,0-.261-.033-.334-.099-.073-.066-.109-.153-.109-.262,0-.112.038-.201.114-.266.076-.065.186-.098.33-.098h2.791c.152,0,.265.034.339.101.074.067.111.155.111.263s-.037.196-.112.262c-.075.066-.187.099-.337.099Z"/>
        <path class="cls-3" d="M23.44,78.219v-3.415c0-.177.04-.311.121-.399.081-.089.185-.133.313-.133.132,0,.239.044.321.132.082.088.123.221.123.401v3.415c0,.179-.041.313-.123.402-.082.089-.189.133-.321.133-.126,0-.23-.045-.312-.135s-.123-.223-.123-.401Z"/>
        <path class="cls-3" d="M26.645,74.804v3.155h1.78c.142,0,.251.035.327.104.076.069.114.156.114.26,0,.106-.037.193-.112.259s-.184.099-.328.099h-2.12c-.191,0-.329-.042-.412-.127-.084-.085-.126-.222-.126-.411v-3.338c0-.177.04-.311.12-.399s.185-.133.315-.133c.132,0,.239.044.321.132.082.088.123.221.123.401Z"/>
        <path class="cls-3" d="M29.962,78.219v-3.415c0-.177.04-.311.121-.399.081-.089.185-.133.313-.133.132,0,.239.044.321.132.082.088.123.221.123.401v3.415c0,.179-.041.313-.123.402-.082.089-.189.133-.321.133-.126,0-.23-.045-.312-.135s-.123-.223-.123-.401Z"/>
        <path class="cls-3" d="M32.191,77.669l2.227-2.664h-1.913c-.134,0-.235-.03-.303-.089-.068-.059-.102-.137-.102-.234,0-.101.034-.182.102-.244s.169-.093.303-.093h2.466c.319,0,.479.149.479.447,0,.142-.027.255-.08.34-.053.085-.161.222-.322.411l-2.082,2.478h2.295c.136,0,.238.028.305.084.067.056.101.135.101.235,0,.105-.034.187-.101.248-.067.061-.169.092-.305.092h-2.815c-.191,0-.335-.043-.432-.129-.097-.086-.145-.201-.145-.344,0-.049.008-.095.024-.136.016-.041.037-.08.064-.117s.064-.083.111-.139c.047-.056.089-.105.124-.146Z"/>
        <path class="cls-3" d="M39.477,78.19l-.207-.544h-1.762l-.207.556c-.081.217-.15.363-.207.439-.057.076-.151.114-.281.114-.11,0-.208-.04-.293-.121-.085-.081-.127-.173-.127-.275,0-.059.01-.12.03-.183.02-.063.052-.151.098-.263l1.109-2.815c.032-.081.069-.178.114-.291s.092-.207.142-.282c.05-.075.116-.136.198-.182s.183-.069.303-.069c.122,0,.224.023.306.069.082.046.148.106.198.179.05.073.093.151.127.235.035.084.078.196.132.336l1.133,2.797c.089.213.133.368.133.464,0,.101-.042.193-.126.277-.084.084-.185.126-.303.126-.069,0-.128-.012-.177-.037-.049-.025-.091-.058-.124-.101-.034-.042-.069-.107-.108-.195-.038-.088-.071-.165-.099-.232ZM37.738,76.986h1.295l-.654-1.789-.642,1.789Z"/>
        <path class="cls-3" d="M42.688,74.798l1.689,2.555v-2.579c0-.167.036-.293.108-.377.072-.084.169-.126.291-.126.126,0,.226.042.299.126.073.084.109.21.109.377v3.409c0,.38-.158.571-.473.571-.079,0-.15-.011-.213-.034-.063-.023-.122-.059-.177-.108-.055-.049-.106-.107-.154-.173-.047-.066-.095-.133-.142-.203l-1.647-2.525v2.54c0,.166-.038.291-.115.376-.077.085-.176.127-.296.127-.124,0-.224-.043-.299-.129s-.112-.21-.112-.374v-3.344c0-.142.016-.253.047-.334.037-.089.1-.161.186-.217.087-.056.18-.084.281-.084.079,0,.146.013.203.038.056.026.105.06.148.104.042.043.086.1.13.169.044.069.09.141.137.216Z"/>
        <path class="cls-3" d="M49.444,75.07h-.958v3.149c0,.181-.04.316-.121.404-.081.088-.185.132-.313.132-.13,0-.236-.044-.318-.133-.082-.089-.123-.223-.123-.402v-3.149h-.958c-.15,0-.261-.033-.334-.099-.073-.066-.109-.153-.109-.262,0-.112.038-.201.114-.266.076-.065.186-.098.33-.098h2.791c.152,0,.265.034.339.101.074.067.111.155.111.263s-.037.196-.112.262c-.075.066-.187.099-.337.099Z"/>
        <path class="cls-3" d="M53.755,75.023h-1.978v1.065h1.822c.134,0,.234.03.3.09.066.06.099.139.099.238s-.032.179-.098.241c-.065.062-.166.093-.302.093h-1.822v1.233h2.046c.138,0,.242.032.312.096.07.064.105.149.105.256,0,.103-.035.186-.105.25-.07.064-.174.096-.312.096h-2.386c-.191,0-.329-.042-.412-.127-.084-.085-.126-.222-.126-.411v-3.259c0-.126.019-.229.056-.309.037-.08.096-.138.176-.174.08-.036.182-.055.306-.055h2.318c.14,0,.244.031.312.093.068.062.102.143.102.244,0,.103-.034.185-.102.247-.068.062-.172.093-.312.093Z"/>
        <path class="cls-3" d="M58.716,77.38c0,.262-.068.498-.203.707-.135.209-.333.373-.593.491-.26.118-.569.177-.926.177-.428,0-.781-.081-1.059-.242-.197-.116-.357-.272-.481-.466-.123-.194-.185-.383-.185-.566,0-.106.037-.198.111-.274.074-.076.168-.114.282-.114.093,0,.171.03.235.089.064.059.119.147.164.263.055.138.115.253.179.346.064.093.154.169.271.229.116.06.269.09.458.09.26,0,.472-.061.634-.182.163-.121.244-.273.244-.454,0-.144-.044-.261-.132-.35s-.201-.158-.34-.206-.325-.098-.557-.151c-.312-.073-.572-.158-.782-.256-.21-.098-.377-.231-.5-.399-.123-.169-.185-.378-.185-.628,0-.239.065-.45.195-.636s.318-.328.565-.427c.246-.1.536-.149.869-.149.266,0,.496.033.69.099.194.066.355.154.484.263.128.109.222.224.281.345s.089.238.089.352c0,.105-.037.199-.111.282-.074.084-.166.126-.276.126-.101,0-.177-.025-.229-.075s-.109-.133-.17-.247c-.079-.164-.173-.291-.284-.383-.11-.092-.288-.138-.532-.138-.227,0-.41.05-.548.149-.139.1-.208.219-.208.359,0,.087.024.162.071.225.047.063.112.117.195.163.083.045.167.081.251.106.085.026.225.063.42.112.244.057.466.12.664.189s.367.153.506.251c.139.099.247.223.325.374.078.151.117.336.117.554Z"/>
        <path class="cls-3" d="M63.089,74.798l1.689,2.555v-2.579c0-.167.036-.293.108-.377.072-.084.169-.126.291-.126.126,0,.226.042.299.126.073.084.109.21.109.377v3.409c0,.38-.158.571-.473.571-.079,0-.15-.011-.213-.034-.063-.023-.122-.059-.177-.108-.055-.049-.106-.107-.154-.173-.047-.066-.095-.133-.142-.203l-1.647-2.525v2.54c0,.166-.038.291-.115.376-.077.085-.176.127-.296.127-.124,0-.224-.043-.299-.129s-.112-.21-.112-.374v-3.344c0-.142.016-.253.047-.334.037-.089.1-.161.186-.217.087-.056.18-.084.281-.084.079,0,.146.013.203.038.056.026.105.06.148.104.042.043.086.1.13.169.044.069.09.141.137.216Z"/>
        <path class="cls-3" d="M69.724,78.19l-.207-.544h-1.762l-.207.556c-.081.217-.15.363-.207.439-.057.076-.151.114-.281.114-.11,0-.208-.04-.293-.121-.085-.081-.127-.173-.127-.275,0-.059.01-.12.03-.183.02-.063.052-.151.098-.263l1.109-2.815c.032-.081.069-.178.114-.291s.092-.207.142-.282c.05-.075.116-.136.198-.182s.183-.069.303-.069c.122,0,.224.023.306.069.082.046.148.106.198.179.05.073.093.151.127.235.035.084.078.196.132.336l1.133,2.797c.089.213.133.368.133.464,0,.101-.042.193-.126.277-.084.084-.185.126-.303.126-.069,0-.128-.012-.177-.037-.049-.025-.091-.058-.124-.101-.034-.042-.069-.107-.108-.195-.038-.088-.071-.165-.099-.232ZM67.985,76.986h1.295l-.654-1.789-.642,1.789Z"/>
        <path class="cls-3" d="M74.073,75.07h-.958v3.149c0,.181-.04.316-.121.404-.081.088-.185.132-.313.132-.13,0-.236-.044-.318-.133-.082-.089-.123-.223-.123-.402v-3.149h-.958c-.15,0-.261-.033-.334-.099-.073-.066-.109-.153-.109-.262,0-.112.038-.201.114-.266.076-.065.186-.098.33-.098h2.791c.152,0,.265.034.339.101.074.067.111.155.111.263s-.037.196-.112.262c-.075.066-.187.099-.337.099Z"/>
        <path class="cls-3" d="M75.534,76.889v-2.085c0-.177.04-.311.12-.399.08-.089.185-.133.315-.133.136,0,.244.044.324.133s.12.222.12.399v2.132c0,.242.027.445.081.608.054.163.15.289.288.378.138.09.331.135.58.135.343,0,.585-.091.727-.274.142-.182.213-.459.213-.829v-2.15c0-.179.039-.313.118-.401.079-.088.184-.132.316-.132s.239.044.321.132c.082.088.123.221.123.401v2.085c0,.339-.033.622-.099.849s-.191.426-.374.597c-.158.146-.341.252-.55.319s-.453.101-.733.101c-.333,0-.62-.036-.86-.108-.241-.072-.437-.183-.588-.334s-.263-.344-.334-.58c-.071-.236-.106-.517-.106-.844Z"/>
        <path class="cls-3" d="M81.793,76.827h-.308v1.393c0,.183-.04.318-.121.405-.081.087-.186.13-.316.13-.14,0-.248-.045-.325-.136s-.115-.224-.115-.399v-3.336c0-.189.042-.326.127-.411s.222-.127.411-.127h1.428c.197,0,.366.008.506.025.14.017.266.051.378.102.136.057.256.139.361.245.104.106.184.23.238.371.054.141.081.29.081.448,0,.323-.091.582-.274.775-.182.193-.459.33-.829.411.156.083.305.205.447.367s.269.334.38.516.198.347.26.494c.062.147.093.248.093.303,0,.057-.018.114-.055.17-.037.056-.086.101-.149.133-.063.033-.136.049-.219.049-.099,0-.181-.023-.248-.069-.067-.046-.125-.105-.173-.176-.048-.071-.114-.175-.197-.313l-.352-.585c-.126-.215-.239-.378-.339-.491-.1-.112-.201-.189-.303-.231-.103-.041-.232-.062-.387-.062ZM82.296,75.005h-.81v1.192h.787c.211,0,.388-.018.532-.055.144-.036.254-.099.33-.186.076-.088.114-.208.114-.362,0-.12-.031-.226-.092-.318-.061-.092-.146-.16-.254-.206-.102-.043-.305-.065-.606-.065Z"/>
        <path class="cls-3" d="M88.227,78.19l-.207-.544h-1.762l-.207.556c-.081.217-.15.363-.207.439-.057.076-.151.114-.281.114-.11,0-.208-.04-.293-.121-.085-.081-.127-.173-.127-.275,0-.059.01-.12.03-.183.02-.063.052-.151.098-.263l1.109-2.815c.032-.081.069-.178.114-.291s.092-.207.142-.282c.05-.075.116-.136.198-.182s.183-.069.303-.069c.122,0,.224.023.306.069.082.046.148.106.198.179.05.073.093.151.127.235.035.084.078.196.132.336l1.133,2.797c.089.213.133.368.133.464,0,.101-.042.193-.126.277-.084.084-.185.126-.303.126-.069,0-.128-.012-.177-.037-.049-.025-.091-.058-.124-.101-.034-.042-.069-.107-.108-.195-.038-.088-.071-.165-.099-.232ZM86.489,76.986h1.295l-.654-1.789-.642,1.789Z"/>
        <path class="cls-3" d="M90.329,78.219v-3.415c0-.177.04-.311.121-.399.081-.089.185-.133.313-.133.132,0,.239.044.321.132.082.088.123.221.123.401v3.415c0,.179-.041.313-.123.402-.082.089-.189.133-.321.133-.126,0-.23-.045-.312-.135s-.123-.223-.123-.401Z"/>
        <path class="cls-3" d="M95.968,77.38c0,.262-.068.498-.203.707-.135.209-.333.373-.593.491-.26.118-.569.177-.926.177-.428,0-.781-.081-1.059-.242-.197-.116-.357-.272-.481-.466-.123-.194-.185-.383-.185-.566,0-.106.037-.198.111-.274.074-.076.168-.114.282-.114.093,0,.171.03.235.089.064.059.119.147.164.263.055.138.115.253.179.346.064.093.154.169.271.229.116.06.269.09.458.09.26,0,.472-.061.634-.182.163-.121.244-.273.244-.454,0-.144-.044-.261-.132-.35s-.201-.158-.34-.206-.325-.098-.557-.151c-.312-.073-.572-.158-.782-.256-.21-.098-.377-.231-.5-.399-.123-.169-.185-.378-.185-.628,0-.239.065-.45.195-.636s.318-.328.565-.427c.246-.1.536-.149.869-.149.266,0,.496.033.69.099.194.066.355.154.484.263.128.109.222.224.281.345s.089.238.089.352c0,.105-.037.199-.111.282-.074.084-.166.126-.276.126-.101,0-.177-.025-.229-.075s-.109-.133-.17-.247c-.079-.164-.173-.291-.284-.383-.11-.092-.288-.138-.532-.138-.227,0-.41.05-.548.149-.139.1-.208.219-.208.359,0,.087.024.162.071.225.047.063.112.117.195.163.083.045.167.081.251.106.085.026.225.063.42.112.244.057.466.12.664.189s.367.153.506.251c.139.099.247.223.325.374.078.151.117.336.117.554Z"/>
      </g>
    </g>
  </g>
</svg>