<?xml version="1.0" encoding="UTF-8"?>
<svg id="Camada_2" data-name="Camada 2" xmlns="http://www.w3.org/2000/svg" viewBox="0 0 39.685 39.685">
  <defs>
    <style>
      .cls-1 {
        fill: #fff;
      }
    </style>
  </defs>
  <g id="Camada_1-2" data-name="Camada 1">
    <path class="cls-1" d="M19.843,39.685C8.901,39.685,0,30.784,0,19.843S8.901,0,19.843,0s19.843,8.901,19.843,19.843-8.901,19.842-19.843,19.842ZM19.843,1.576C9.77,1.576,1.576,9.77,1.576,19.843s8.194,18.266,18.267,18.266,18.267-8.194,18.267-18.266S29.915,1.576,19.843,1.576Z"/>
    <path class="cls-1" d="M39.091,21.142c-2.14,0-3.255-.738-4.238-1.388-.889-.588-1.657-1.097-3.27-1.097s-2.381.509-3.27,1.097c-.983.651-2.097,1.388-4.238,1.388s-3.253-.738-4.235-1.388c-.889-.588-1.657-1.097-3.267-1.097s-2.376.509-3.263,1.097c-.982.651-2.095,1.388-4.233,1.388s-3.253-.738-4.235-1.388c-.889-.588-1.655-1.097-3.266-1.097v-1.752c2.139,0,3.252.738,4.233,1.388.889.588,1.655,1.097,3.267,1.097s2.376-.509,3.263-1.097c.982-.651,2.095-1.388,4.233-1.388s3.253.738,4.235,1.388c.889.588,1.657,1.097,3.267,1.097s2.381-.509,3.27-1.097c.983-.651,2.097-1.388,4.238-1.388s3.255.738,4.238,1.388c.889.588,1.657,1.097,3.27,1.097v1.752Z"/>
    <rect class="cls-1" x="29.73" y="22.106" width="1.752" height="5.338"/>
    <polygon class="cls-1" points="27.983 26.676 30.606 31.218 33.229 26.676 27.983 26.676"/>
    <rect class="cls-1" x="13.922" y="22.106" width="1.752" height="7.752"/>
    <polygon class="cls-1" points="12.175 29.091 14.797 33.633 17.42 29.091 12.175 29.091"/>
    <circle class="cls-1" cx="21.066" cy="25.566" r="1.233"/>
    <circle class="cls-1" cx="8.94" cy="23.973" r="1.233"/>
    <circle class="cls-1" cx="20.707" cy="33.342" r="1.61"/>
    <path class="cls-1" d="M20.334,4.928c2.312,1.79,3.288,4.23,3.288,6.046s-1.472,3.288-3.288,3.288-3.288-1.472-3.288-3.288,1.182-4.359,3.288-6.046M20.315,2.696l-1.078.863c-2.36,1.89-3.946,4.87-3.946,7.414,0,2.78,2.262,5.042,5.042,5.042s5.042-2.262,5.042-5.042c0-2.108-1.043-5.167-3.969-7.432l-1.092-.845h0Z"/>
  </g>
</svg>